<svg width="34" height="35" fill="none" xmlns="http://www.w3.org/2000/svg"><g clip-path="url(#clip0_401_2755)"><path d="M17 7.5c-5.52 0-10 4.48-10 10s4.48 10 10 10 10-4.48 10-10-4.48-10-10-10zm-4.93 16.28C12.5 22.88 15.12 22 17 22s4.51.88 4.93 1.78A7.893 7.893 0 0117 25.5c-1.86 0-3.57-.64-4.93-1.72zm11.29-1.45C21.93 20.59 18.46 20 17 20s-4.93.59-6.36 2.33A7.95 7.95 0 019 17.5c0-4.41 3.59-8 8-8s8 3.59 8 8c0 1.82-.62 3.49-1.64 4.83zM17 11.5c-1.94 0-3.5 1.56-3.5 3.5s1.56 3.5 3.5 3.5 3.5-1.56 3.5-3.5-1.56-3.5-3.5-3.5zm0 5c-.83 0-1.5-.67-1.5-1.5s.67-1.5 1.5-1.5 1.5.67 1.5 1.5-.67 1.5-1.5 1.5z" fill="#ECE03D"/></g><defs><clipPath id="clip0_401_2755"><path fill="#fff" transform="translate(0 .5)" d="M0 0h34v34H0z"/></clipPath></defs></svg>