<svg width="34" height="35" fill="none" xmlns="http://www.w3.org/2000/svg"><g clip-path="url(#clip0_401_2749)"><path d="M27 14.5h-4.79l-4.38-6.56a.993.993 0 00-.83-.42c-.32 0-.64.14-.83.43l-4.38 6.55H7c-.55 0-1 .45-1 1 0 .09.01.18.04.27l2.54 9.27c.23.84 1 1.46 1.92 1.46h13c.92 0 1.69-.62 1.93-1.46l2.54-9.27.03-.27c0-.55-.45-1-1-1zm-10-4.2l2.8 4.2h-5.6l2.8-4.2zm6.5 14.2l-12.99.01-2.2-8.01H25.7l-2.2 8zm-6.5-6c-1.1 0-2 .9-2 2s.9 2 2 2 2-.9 2-2-.9-2-2-2z" fill="#ECE03D"/></g><defs><clipPath id="clip0_401_2749"><path fill="#fff" transform="translate(0 .5)" d="M0 0h34v34H0z"/></clipPath></defs></svg>