<svg width="24" height="26" fill="none" xmlns="http://www.w3.org/2000/svg"><g clip-path="url(#clip0_527_11103)"><path d="M6.527 5.64c.06.933.21 1.845.449 2.715L5.778 9.613A16.23 16.23 0 015.02 5.64h1.507zm9.84 12.6c.848.252 1.716.409 2.594.472v1.561a14.744 14.744 0 01-3.792-.786l1.197-1.247zM7.484 3.544H3.992c-.549 0-.998.472-.998 1.048 0 9.843 7.594 17.82 16.965 17.82.549 0 .998-.472.998-1.048v-3.659c0-.576-.45-1.048-.998-1.048a10.91 10.91 0 01-3.563-.597.802.802 0 00-.31-.053.997.997 0 00-.708.304l-2.195 2.306c-2.824-1.52-5.14-3.941-6.576-6.907l2.195-2.307c.28-.293.36-.702.25-1.069a12.457 12.457 0 01-.57-3.742c0-.576-.448-1.048-.997-1.048z" fill="#828A92"/></g><defs><clipPath id="clip0_527_11103"><path fill="#fff" transform="translate(0 .4)" d="M0 0h23.95v25.157H0z"/></clipPath></defs></svg>