<svg width="34" height="34" fill="none" xmlns="http://www.w3.org/2000/svg"><path d="M1 17C1 8.163 8.163 1 17 1s16 7.163 16 16-7.163 16-16 16S1 25.837 1 17z" fill="#fff" stroke="#828A92"/><path d="M17 12.748c1.302 0 2.18.562 2.681 1.032l1.957-1.91c-1.202-1.117-2.766-1.803-4.638-1.803a6.928 6.928 0 00-6.193 3.82l2.241 1.742c.563-1.672 2.119-2.881 3.952-2.881z" fill="#EA4335"/><path d="M23.656 17.154c0-.57-.046-.986-.146-1.417H17v2.573h3.821c-.077.64-.493 1.602-1.417 2.25l2.187 1.694c1.31-1.21 2.065-2.989 2.065-5.1z" fill="#4285F4"/><path d="M13.056 18.371A4.27 4.27 0 0112.825 17c0-.478.085-.94.223-1.371l-2.242-1.741c-.47.94-.74 1.995-.74 3.112s.27 2.172.74 3.112l2.25-1.74z" fill="#FBBC05"/><path d="M17 23.934c1.872 0 3.444-.617 4.591-1.68l-2.187-1.695c-.586.409-1.372.694-2.404.694-1.833 0-3.39-1.21-3.944-2.881l-2.242 1.74A6.916 6.916 0 0017 23.935z" fill="#34A853"/></svg>