<svg width="120" height="47" fill="none" xmlns="http://www.w3.org/2000/svg"><path d="M28.607 23.998L16.093 47.496h-3.575L0 23.998 12.518.5h3.58L3.578 23.998l10.73 20.142 10.729-20.143-6.258-11.75 1.786-3.358 8.042 15.108zM23.243.5h-3.575L7.15 23.998l8.046 15.108 1.79-3.355-6.257-11.749L21.453 3.86l10.729 20.143L19.668 47.5h3.575l12.514-23.498L23.243.5zM120 19.255v1.901h-3.588v7.459h-2.422v-7.459h-3.588v-1.901H120zm-13.84 0h-2.418v9.36h7.683V26.7h-5.274l.009-7.445zm-46.58 5.517h5.048V22.98h-5.035v-1.824H65.1v-1.901h-7.93v9.36h8.086V26.7h-5.663l-.013-1.928zm15.798-5.517v6.14l-5.55-6.14h-2.063v9.36h2.166v-6.153l5.53 6.153h2.088v-9.36h-2.17zm20.799 9.49c2.738 0 4.801-1.175 4.801-3.99v-5.5h-2.44v5.5c0 .953-.346 2.067-2.361 2.067s-2.357-1.114-2.357-2.067v-5.5h-2.44v5.5c.022 2.815 2.084 3.99 4.818 3.99h-.021zm-9.1-1.88h-4.736l-.723 1.741H79.13l4.008-9.347h3.154l4.008 9.347h-2.49l-.733-1.74zm-.793-1.901l-1.577-3.786-1.573 3.786h3.15zm-31.449 3.65l-1.972-3.402a2.954 2.954 0 001.65-2.767c.001-1.828-1.268-3.177-3.621-3.177h-5.763v9.347h2.426V25.62h3.008l1.611 2.994h2.661zm-2.803-6.17c0 .74-.516 1.306-1.465 1.306h-3.033v-2.568h3.033c.949-.034 1.465.51 1.465 1.25v.012z" fill="#fff"/></svg>