<svg width="24" height="24" fill="none" xmlns="http://www.w3.org/2000/svg"><path d="M12.09 8.841l.034.584-.565-.071C9.504 9.08 7.708 8.15 6.183 6.589l-.746-.775-.192.572c-.406 1.275-.146 2.622.7 3.528.453.5.35.572-.428.274-.272-.096-.509-.167-.531-.131-.08.083.192 1.168.406 1.596.294.596.893 1.18 1.548 1.526l.553.274-.655.012c-.633 0-.655.012-.587.262.226.775 1.118 1.597 2.112 1.954l.7.25-.61.382a6.152 6.152 0 01-3.027.882c-.508.012-.926.06-.926.095 0 .12 1.378.787 2.18 1.049 2.406.774 5.263.44 7.41-.882 1.524-.942 3.049-2.812 3.76-4.624.384-.965.768-2.729.768-3.575 0-.548.034-.62.667-1.275.372-.381.723-.798.79-.917.113-.227.102-.227-.474-.024-.96.357-1.096.31-.621-.227.35-.38.768-1.072.768-1.275 0-.035-.17.024-.362.131-.203.12-.655.298-.994.406l-.61.202-.553-.393c-.305-.215-.734-.453-.96-.524-.576-.167-1.457-.143-1.976.047a3.415 3.415 0 00-2.203 3.432z" fill="#ECE03D"/></svg>