<svg width="24" height="24" fill="none" xmlns="http://www.w3.org/2000/svg"><path fill-rule="evenodd" clip-rule="evenodd" d="M18.52 6.345a2.04 2.04 0 011.42 1.459c.336 1.286.336 3.971.336 3.971s0 2.685-.336 3.971a2.04 2.04 0 01-1.42 1.46c-1.254.344-6.279.344-6.279.344s-5.025 0-6.278-.345a2.04 2.04 0 01-1.42-1.459c-.336-1.286-.336-3.971-.336-3.971s0-2.685.335-3.971a2.04 2.04 0 011.421-1.46C7.216 6 12.241 6 12.241 6s5.025 0 6.279.345zm-7.785 3.17v5.022l4.017-2.51-4.017-2.512z" fill="#ECE03D"/></svg>