<svg width="24" height="24" fill="none" xmlns="http://www.w3.org/2000/svg"><path fill-rule="evenodd" clip-rule="evenodd" d="M11.262 5.252h.739c2.199 0 2.46.008 3.328.047.802.037 1.238.171 1.529.284.384.15.658.328.946.616.288.288.466.563.616.947.113.29.247.726.284 1.529.04.868.048 1.128.048 3.326 0 2.198-.009 2.459-.048 3.327-.037.803-.171 1.238-.284 1.528-.15.385-.328.658-.616.946a2.547 2.547 0 01-.946.616c-.29.113-.727.247-1.53.284-.868.04-1.128.048-3.327.048s-2.46-.009-3.328-.048c-.803-.037-1.238-.171-1.529-.284a2.55 2.55 0 01-.947-.616 2.552 2.552 0 01-.616-.946c-.113-.29-.247-.726-.284-1.529-.04-.868-.047-1.129-.047-3.328s.008-2.458.047-3.327c.037-.802.171-1.238.284-1.528.15-.385.328-.66.616-.947.288-.289.563-.467.947-.617.29-.113.726-.247 1.53-.284.759-.034 1.053-.044 2.588-.046v.002zm5.135 1.367a.988.988 0 100 1.977.988.988 0 000-1.977zm-8.625 5.384a4.23 4.23 0 118.458 0 4.23 4.23 0 01-8.458 0z" fill="#ECE03D"/><path d="M12 9.258a2.745 2.745 0 110 5.49 2.745 2.745 0 010-5.49z" fill="#ECE03D"/></svg>