<svg width="184" height="178" fill="none" xmlns="http://www.w3.org/2000/svg"><g clip-path="url(#clip0_434_8625)" fill="#000"><path d="M137.816 90.736H50.17V95.7h87.646v-4.965zm0 19.856H50.17v4.966h87.646v-4.966z"/><path d="M160.005 100.442h-2.978l-5.302-48.036a2.53 2.53 0 00-.895-1.692 2.743 2.743 0 00-1.863-.638H63.404V44.47H68.3v-5.293H41.954v5.293h4.89v5.606h-8.28a2.834 2.834 0 00-1.407.361c-.427.24-.778.586-1.016 1.001l-3.646 6.67H27.52a2.84 2.84 0 00-1.059.195c-.336.132-.64.326-.898.572-.256.246-.46.538-.597.86a2.528 2.528 0 00-.204 1.015v10.579c-.003.348.067.693.204 1.014.138.322.34.615.597.86.257.247.562.441.898.573a2.84 2.84 0 001.059.196h4.086L35.8 124.44c.056.664.372 1.283.882 1.735.511.452 1.18.703 1.875.704h110.417a2.808 2.808 0 001.544-.47c.453-.303.799-.73.993-1.226l3.753-8.889h4.748c.363.003.724-.063 1.06-.194.337-.131.643-.326.9-.572a2.61 2.61 0 00.599-.861c.139-.323.208-.668.205-1.017v-10.578a2.533 2.533 0 00-.209-1.014 2.623 2.623 0 00-.602-.857 2.739 2.739 0 00-.901-.568 2.854 2.854 0 00-1.059-.191zM52.366 44.368h5.523v5.606h-5.523v-5.606zm104.881 66.66h-3.866a2.801 2.801 0 00-1.543.466c-.453.302-.8.728-.995 1.223l-3.752 8.856H41.108l-4.2-50.47a2.61 2.61 0 00-.88-1.735 2.833 2.833 0 00-1.877-.703h-3.867V63.38h3.867a2.85 2.85 0 001.41-.361 2.7 2.7 0 001.02-1l3.64-6.67h106.202l5.302 48.037a2.53 2.53 0 00.898 1.692 2.758 2.758 0 001.866.638h2.758v5.313z"/><path d="M137.816 80.804H50.17v4.966h87.646v-4.966zm0-19.856H50.17v4.965h87.646v-4.965zm0 39.719H50.17v4.966h87.646v-4.966zm0-29.787H50.17v4.965h87.646v-4.966z"/></g><defs><clipPath id="clip0_434_8625"><path fill="#fff" transform="translate(24.77 39.177)" d="M0 0h138v87.722H0z"/></clipPath></defs></svg>