<svg width="184" height="178" fill="none" xmlns="http://www.w3.org/2000/svg"><g clip-path="url(#clip0_434_8554)" fill="#000"><path d="M102.668 68.37H80.919c-2.871.012-5.622 1.116-7.653 3.073-2.031 1.957-3.178 4.607-3.192 7.375v37.989h4.662V78.818a5.732 5.732 0 01.458-2.287 5.905 5.905 0 011.34-1.94 6.16 6.16 0 012.012-1.291 6.339 6.339 0 012.373-.442h21.749a6.321 6.321 0 012.375.436 6.127 6.127 0 012.014 1.289 5.886 5.886 0 011.34 1.94c.308.727.462 1.505.455 2.29V116.8h4.642V78.818c-.005-2.767-1.147-5.42-3.176-7.378-2.028-1.958-4.779-3.062-7.65-3.07z"/><path d="M113.739 117.037h-5.158V78.818a5.48 5.48 0 00-.435-2.2 5.628 5.628 0 00-1.286-1.864 5.88 5.88 0 00-1.936-1.237 6.058 6.058 0 00-2.282-.417H80.687a6.005 6.005 0 00-4.077 1.735 5.58 5.58 0 00-1.655 3.99v38.218h-5.159V78.818c.014-2.83 1.187-5.541 3.264-7.542 2.077-2.001 4.89-3.13 7.827-3.142h21.749c2.937.005 5.751 1.133 7.827 3.136 2.075 2.003 3.242 4.717 3.244 7.548l.032 38.219zm-4.649-.466h4.146V78.818c-.002-2.707-1.117-5.303-3.102-7.219-1.985-1.915-4.677-2.994-7.485-2.999h-21.75c-2.809.01-5.501 1.09-7.488 3.006-1.987 1.915-3.108 4.51-3.118 7.219v37.746h4.185V78.818c-.01-.818.15-1.63.471-2.389a6.134 6.134 0 011.396-2.026 6.399 6.399 0 012.102-1.346 6.585 6.585 0 012.479-.454h21.748a6.563 6.563 0 012.476.445c.786.306 1.5.76 2.101 1.337a6.122 6.122 0 011.398 2.019 5.93 5.93 0 01.473 2.383l-.032 37.784z"/><path d="M70.506 53.69h-1.154a10.522 10.522 0 00-4.062.807 10.203 10.203 0 00-3.392 2.3 12.66 12.66 0 00-3.353 6.999l-5.268 47.386h4.72l5.158-46.758a8.408 8.408 0 012.14-4.544 5.25 5.25 0 011.833-1.286c.7-.296 1.46-.44 2.224-.423h44.09a5.39 5.39 0 012.219.422 5.21 5.21 0 011.824 1.287 8.75 8.75 0 012.167 4.612l5.803 46.709h4.726l-5.906-47.424a13.105 13.105 0 00-3.379-6.949 10.161 10.161 0 00-3.388-2.301 10.488 10.488 0 00-4.059-.807h-.361m-4.662 0H75.193z"/><path d="M130.452 111.443h-5.216v-.205l-5.803-46.709a8.565 8.565 0 00-2.102-4.475 4.982 4.982 0 00-1.746-1.235 5.148 5.148 0 00-2.123-.406h-44.09a5.172 5.172 0 00-2.123.405 5.005 5.005 0 00-1.747 1.23 8.115 8.115 0 00-2.076 4.419l-5.158 46.97h-5.21v-.255l5.261-47.386a12.85 12.85 0 013.424-7.154 10.394 10.394 0 013.468-2.366 10.722 10.722 0 014.16-.829h1.154v.466h-1.154a10.23 10.23 0 00-3.97.79 9.917 9.917 0 00-3.31 2.256 12.463 12.463 0 00-3.288 6.88l-5.236 47.132h4.217l5.159-46.547a8.561 8.561 0 012.198-4.693 5.414 5.414 0 011.713-1.256 5.59 5.59 0 012.085-.516h44.542a5.626 5.626 0 012.318.443c.73.31 1.38.77 1.905 1.347a8.945 8.945 0 012.225 4.724l5.803 46.517h4.236l-5.874-47.157a12.851 12.851 0 00-3.314-6.837 9.986 9.986 0 00-3.308-2.256 10.292 10.292 0 00-3.965-.802h-.361v-.466h.361a10.81 10.81 0 014.159.842 10.48 10.48 0 013.469 2.365 13.33 13.33 0 013.437 7.073l5.88 47.691zM108.42 53.919H75.193v-.466h33.252l-.025.466z"/><path d="M131.135 136.498h-78.27c-2.29-.004-4.486-.882-6.104-2.444-1.619-1.561-2.529-3.678-2.53-5.885v-9.628a8.071 8.071 0 01.865-3.613 8.383 8.383 0 012.409-2.891 8.769 8.769 0 013.473-1.595 8.944 8.944 0 013.847.019 176.388 176.388 0 0037.836 4.426 163.253 163.253 0 0036.431-4.351 8.947 8.947 0 013.871-.048 8.78 8.78 0 013.504 1.587 8.399 8.399 0 012.431 2.905 8.064 8.064 0 01.871 3.636v9.534a8.07 8.07 0 01-.653 3.191 8.33 8.33 0 01-1.87 2.707 8.686 8.686 0 01-2.803 1.811 8.94 8.94 0 01-3.308.639zm-78.283-21.313a3.542 3.542 0 00-2.452.988 3.289 3.289 0 00-1.011 2.368v9.628c0 .889.366 1.742 1.018 2.371a3.547 3.547 0 002.458.985h78.27a3.545 3.545 0 002.458-.985 3.294 3.294 0 001.018-2.371v-9.534a3.248 3.248 0 00-.347-1.468 3.372 3.372 0 00-.979-1.172 3.53 3.53 0 00-1.414-.64 3.59 3.59 0 00-1.561.023 168.89 168.89 0 01-37.65 4.456 181.318 181.318 0 01-39.015-4.562 3.854 3.854 0 00-.793-.112v.025zm50.48-65.623H80.12c-2.517-.001-4.93-.966-6.71-2.681-1.78-1.716-2.78-4.042-2.782-6.468v-1.591c.002-2.427 1.002-4.753 2.782-6.47 1.78-1.716 4.192-2.682 6.71-2.685h23.212c2.518.003 4.932.969 6.712 2.685 1.781 1.716 2.782 4.043 2.786 6.47v1.591c-.004 2.427-1.005 4.753-2.786 6.468-1.781 1.715-4.195 2.68-6.712 2.681zM80.12 34.645a4.423 4.423 0 00-3.065 1.228 4.108 4.108 0 00-1.268 2.955v1.591a4.108 4.108 0 001.27 2.952 4.422 4.422 0 003.063 1.225h23.212a4.429 4.429 0 003.064-1.225 4.115 4.115 0 001.276-2.952v-1.59a4.117 4.117 0 00-1.273-2.957 4.432 4.432 0 00-3.067-1.227H80.12z"/></g><defs><clipPath id="clip0_434_8554"><path fill="#fff" transform="translate(44.23 29.667)" d="M0 0h95.538v106.8H0z"/></clipPath></defs></svg>