<svg width="184" height="178" fill="none" xmlns="http://www.w3.org/2000/svg"><g clip-path="url(#clip0_434_8579)" fill="#000"><path d="M121.324 56.338l5.532 55.313H64.371l5.422-55.313h51.531zm4.07-4.361H65.717l-6.281 64.035h72.348l-6.409-64.035h.019z"/><path d="M119.28 46.987a1 1 0 01.695.279c.185.178.29.42.292.674v.474l7.05 72.102a.952.952 0 01-.328.589.999.999 0 01-.646.233h-61.53a.989.989 0 01-.647-.232.937.937 0 01-.327-.59l7.012-72.103c.01-.157.01-.315 0-.473a.946.946 0 01.291-.674c.185-.179.435-.28.696-.28h47.429m0-4.983h-47.43c-1.62 0-3.174.626-4.32 1.739a5.86 5.86 0 00-1.794 4.198l-7.05 72.439c0 1.576.644 3.088 1.791 4.202a6.203 6.203 0 004.323 1.741h61.53a6.204 6.204 0 004.324-1.741 5.861 5.861 0 001.791-4.202l-7.051-72.439a5.855 5.855 0 00-1.793-4.198 6.205 6.205 0 00-4.321-1.739z"/><path d="M113.005 45.654h-5.127v-6.971H83.234v6.97h-5.128V33.7h34.899v11.955zm2.948 90.006H75.158v-12.266h5.768v6.659h29.259v-6.659h5.768v12.266zM97.917 55.279h-4.486v57.263h4.486V55.279zm-14.708-.197l-2.562 57.259 4.482.189 2.562-57.259-4.483-.19zm-8.849.071l-5.133 57.258 4.47.378 5.133-57.258-4.47-.378zm33.592.065l-4.48.236 3.201 57.26 4.48-.237-3.201-57.26zm8.934-.061l-4.469.378 5.123 57.259 4.469-.378-5.123-57.259z"/></g><defs><clipPath id="clip0_434_8579"><path fill="#fff" transform="translate(58.667 33.699)" d="M0 0h73.778v101.961H0z"/></clipPath></defs></svg>