<svg width="184" height="178" fill="none" xmlns="http://www.w3.org/2000/svg"><g clip-path="url(#clip0_434_8593)" fill="#000"><path d="M55.887 38.02a2.3 2.3 0 00-1.459.713c-.378.404-.586.93-.584 1.475v41.125a10.674 10.674 0 00-5.964 3.583 10.046 10.046 0 00-2.343 6.397v10.044a10.022 10.022 0 002.275 6.312 10.64 10.64 0 005.821 3.609l1.412 6.422v7.968c0 .579.238 1.134.662 1.544.424.409.998.639 1.598.639h15.85a2.309 2.309 0 001.597-.64c.425-.409.664-.964.667-1.543V117.7l1.407-6.422a10.632 10.632 0 005.826-3.607 10.015 10.015 0 002.276-6.314V91.313a10.046 10.046 0 00-2.342-6.4 10.674 10.674 0 00-5.965-3.586V40.208a2.152 2.152 0 00-.665-1.544c-.425-.41-1-.64-1.6-.64H55.887v-.005zm2.498 4.393h13.734v38.674H58.385V42.413zm-2.26 43.067H74.4a6.165 6.165 0 012.319.43c.736.29 1.404.72 1.966 1.262a5.77 5.77 0 011.307 1.9c.301.711.452 1.473.445 2.24v10.045a5.595 5.595 0 01-.445 2.238 5.76 5.76 0 01-1.308 1.897c-.562.542-1.23.97-1.966 1.258a6.151 6.151 0 01-2.318.424H56.125a6.134 6.134 0 01-2.314-.425 5.985 5.985 0 01-1.962-1.26 5.73 5.73 0 01-1.303-1.896 5.58 5.58 0 01-.44-2.236V91.313a5.589 5.589 0 01.438-2.24 5.752 5.752 0 011.302-1.9 5.985 5.985 0 011.963-1.263 6.146 6.146 0 012.316-.43zm2.215 26.087h13.795l-.825 3.746H59.165l-.825-3.746zm1.252 8.118h11.286v3.81H59.592v-3.81zm49.797-81.665a2.294 2.294 0 00-1.46.711 2.146 2.146 0 00-.583 1.477v41.125a10.684 10.684 0 00-5.961 3.585 10.056 10.056 0 00-2.346 6.395v26.36c.01 2.705 1.127 5.296 3.106 7.209 1.979 1.913 4.661 2.992 7.46 3.001h18.275c2.8-.007 5.483-1.085 7.462-2.998 1.979-1.914 3.093-4.506 3.099-7.212v-26.36a10.046 10.046 0 00-2.343-6.4 10.676 10.676 0 00-5.964-3.586V40.208a2.148 2.148 0 00-.665-1.544c-.425-.41-1-.64-1.6-.64h-18.496l.016-.005zm2.498 4.393h13.717v38.674h-13.717V42.413zM109.605 85.5h18.275a6.15 6.15 0 012.317.43 5.98 5.98 0 011.962 1.264 5.751 5.751 0 011.303 1.9c.299.71.448 1.472.438 2.24v26.36a5.64 5.64 0 01-1.01 3.271 5.954 5.954 0 01-2.745 2.15v-6.749a3.263 3.263 0 00-.999-2.313 3.496 3.496 0 00-2.39-.977h-16.043a3.486 3.486 0 00-2.386.979 3.257 3.257 0 00-.998 2.311v6.743a5.948 5.948 0 01-2.743-2.147 5.644 5.644 0 01-1.012-3.268v-26.36a5.622 5.622 0 01.444-2.24 5.785 5.785 0 011.306-1.9 5.997 5.997 0 011.964-1.263 6.166 6.166 0 012.317-.43zm2.26 31.969h13.717v6.025h-13.717v-6.025z"/><path d="M56.114 81.092c-2.8.01-5.483 1.09-7.462 3.005-1.979 1.916-3.093 4.51-3.099 7.216v10.05c.008 2.704 1.123 5.295 3.102 7.208 1.979 1.912 4.66 2.989 7.46 2.996h18.274c2.799-.007 5.481-1.084 7.46-2.996 1.979-1.913 3.094-4.504 3.101-7.208v-10.05c-.006-2.706-1.12-5.3-3.098-7.216-1.98-1.915-4.662-2.995-7.463-3.005H56.114zm0 4.388H74.39a6.172 6.172 0 012.318.43 6.023 6.023 0 011.966 1.264 5.774 5.774 0 011.307 1.9c.3.71.452 1.471.446 2.239v10.05a5.604 5.604 0 01-.448 2.236 5.764 5.764 0 01-1.308 1.895c-.562.542-1.23.97-1.965 1.259a6.162 6.162 0 01-2.316.426H56.114a6.144 6.144 0 01-2.312-.426 5.976 5.976 0 01-1.96-1.26 5.74 5.74 0 01-1.302-1.896 5.58 5.58 0 01-.44-2.234v-10.05a5.597 5.597 0 01.44-2.237 5.758 5.758 0 011.3-1.9 5.99 5.99 0 011.96-1.263 6.154 6.154 0 012.314-.433zm-.227-30.481c-.56.053-1.08.306-1.458.71a2.148 2.148 0 00-.585 1.473v10.906a2.13 2.13 0 00.169.842c.113.267.28.51.49.715a2.312 2.312 0 001.606.648h18.275a2.312 2.312 0 001.606-.648c.21-.205.377-.448.49-.715a2.13 2.13 0 00.169-.842V57.182a2.152 2.152 0 00-.665-1.544c-.425-.41-1-.639-1.6-.639H55.887zm2.498 4.372h13.734V65.9H58.385v-6.53zm52.361 29.967a3.499 3.499 0 00-2.387.968 3.264 3.264 0 00-1.013 2.302v5.619a3.278 3.278 0 001.01 2.309 3.506 3.506 0 002.39.976h16.027a3.5 3.5 0 002.382-.978 3.27 3.27 0 001.002-2.307v-5.62a3.248 3.248 0 00-1.001-2.302 3.478 3.478 0 00-2.383-.967h-16.027zm1.141 4.388h13.717v3.398h-13.717v-3.398z"/><path d="M57.238 89.172a3.5 3.5 0 00-2.389.97 3.269 3.269 0 00-1.01 2.305v5.63a3.267 3.267 0 001.01 2.305 3.5 3.5 0 002.39.97h16.015a3.5 3.5 0 002.393-.968 3.27 3.27 0 001.013-2.307v-5.619a3.27 3.27 0 00-1.013-2.308 3.5 3.5 0 00-2.393-.967l-16.016-.01zm1.141 4.394h13.734v3.392H58.38v-3.392z"/></g><defs><clipPath id="clip0_434_8593"><path fill="#fff" transform="translate(45.553 38.02)" d="M0 0h92.893v89.864H0z"/></clipPath></defs></svg>