<svg width="184" height="178" fill="none" xmlns="http://www.w3.org/2000/svg"><g clip-path="url(#clip0_434_8523)" fill="#000"><path d="M109.498 68.518a.592.592 0 01.542.316l.185.33.234.302 6.174 8.114 1.647 2.169h3.677a.63.63 0 01.618.625v6.384h12.609v-6.384a.636.636 0 01.625-.625h4.926l4.72 7.297a.508.508 0 01.075.178.636.636 0 010 .151V104.6a.572.572 0 010 .117v.082l-.048.096-.116.206-.103.213-3.005 6.364-.034.075-.042.089v.048a.62.62 0 01-.549.337h-5.817a.633.633 0 01-.625-.625v-6.384h-12.623v13.434a.641.641 0 01-.625.625h-40.06a.607.607 0 01-.555-.337l-.226-.466-.316-.412-5.488-7.194-1.647-2.17H59.8a.62.62 0 01-.625-.624v-31.97a.624.624 0 01.625-.624h11.162v-6.364a.639.639 0 01.624-.624h37.912m0-5.492H71.593a6.118 6.118 0 00-6.113 6.116v.852h-5.674a6.111 6.111 0 00-6.112 6.116v31.969a6.125 6.125 0 006.112 6.117h11.1l5.49 7.194a6.08 6.08 0 005.488 3.384h40.094a6.121 6.121 0 006.113-6.116v-7.915h1.619v.892a6.121 6.121 0 006.112 6.116h5.818a6.106 6.106 0 005.612-3.706l2.978-6.357a6.24 6.24 0 00.453-.961l.075-.165c.195-.431.288-.9.275-1.373V87.376a6.06 6.06 0 00-.981-3.316l-2.745-5.828a6.105 6.105 0 00-5.728-3.975h-5.811a6.118 6.118 0 00-6.113 6.117v.892h-1.626v-.892a6.12 6.12 0 00-6.106-6.117h-.933l-6.175-8.114a6.057 6.057 0 00-5.324-3.117l.007-.027zm.144-5.452h-38.81a2.744 2.744 0 01-2.745-2.745V45.5a2.747 2.747 0 012.744-2.746h38.811a2.745 2.745 0 012.744 2.746v9.302a2.745 2.745 0 01-2.744 2.746zm-36.066-5.491h33.322v-3.81H73.576v3.81zm-28.561 61.192h-9.29a2.744 2.744 0 01-2.744-2.746V73.529a2.746 2.746 0 012.744-2.745h9.29a2.743 2.743 0 012.744 2.745v36.974a2.746 2.746 0 01-2.744 2.746zm-6.545-5.492h3.8V76.275h-3.8v31.482z"/></g><defs><clipPath id="clip0_434_8523"><path fill="#fff" transform="translate(32.981 42.755)" d="M0 0h118.038v82.02H0z"/></clipPath></defs></svg>