<svg width="184" height="178" fill="none" xmlns="http://www.w3.org/2000/svg"><g clip-path="url(#clip0_434_8661)" fill="#000"><path d="M95.731 85.775a2.505 2.505 0 00-1.331.412c-.395.26-.707.627-.898 1.057a2.436 2.436 0 00.412 2.618c2.55 2.952 3.347 4.957 3.43 6.307.083 1.35-.395 2.378-1.447 3.784-2.11 2.87-6.7 6.604-6.956 13.157v.094c0 2.864 1.39 5.222 2.62 7.007a24.922 24.922 0 002.48 3.028 2.499 2.499 0 002.728.591 2.475 2.475 0 001.137-.906c.278-.408.427-.889.426-1.382a2.51 2.51 0 00-.746-1.753c-.7-.727-1.34-1.51-1.912-2.34-.95-1.375-1.722-3.154-1.74-4.188.19-4.32 3.27-6.717 5.98-10.407 1.363-1.848 2.549-4.213 2.383-7.044-.165-2.832-1.664-5.759-4.609-9.165a2.515 2.515 0 00-1.957-.89v.02zm14.714 0a2.508 2.508 0 00-1.325.42c-.392.261-.7.628-.889 1.057a2.43 2.43 0 00-.176 1.365c.074.462.279.894.592 1.245 2.55 2.952 3.328 4.957 3.417 6.307.089 1.35-.402 2.378-1.453 3.784-2.111 2.87-6.694 6.585-6.956 13.138v.113c0 2.864 1.396 5.222 2.627 7.007a24.568 24.568 0 002.473 3.028 2.49 2.49 0 001.757.751 2.49 2.49 0 002.324-1.505 2.434 2.434 0 00-.536-2.696c-.7-.728-1.34-1.51-1.913-2.34-.956-1.381-1.727-3.154-1.746-4.194.191-4.314 3.27-6.711 5.979-10.401 1.365-1.854 2.595-4.213 2.404-7.044-.191-2.832-1.664-5.765-4.603-9.171a2.495 2.495 0 00-1.983-.883l.007.019zm-29.428.038c-.473.01-.933.153-1.327.413-.394.26-.704.626-.895 1.055a2.434 2.434 0 00.405 2.612c2.55 2.952 3.341 4.945 3.43 6.307.09 1.363-.414 2.39-1.466 3.829-2.117 2.87-6.681 6.591-6.943 13.144v.094c0 2.864 1.41 5.242 2.64 7.026a24.216 24.216 0 002.48 3.028 2.477 2.477 0 001.785.87 2.505 2.505 0 002.421-1.549 2.46 2.46 0 00-.681-2.771 19.549 19.549 0 01-1.912-2.359c-.95-1.381-1.722-3.154-1.74-4.194.197-4.308 3.282-6.711 5.992-10.401 1.364-1.847 2.55-4.194 2.39-7.026-.159-2.832-1.663-5.764-4.609-9.164a2.445 2.445 0 00-.874-.669c-.34-.154-.71-.23-1.083-.22l-.013-.025z"/><path d="M132.496 116.497h-12.431v-5.677h9.563V56.037H59.699v54.783h9.563v5.677H56.83a2.893 2.893 0 01-2.03-.83 2.831 2.831 0 01-.839-2.009V53.199c0-.753.303-1.474.84-2.007a2.884 2.884 0 012.03-.831h75.665c.761 0 1.491.299 2.029.831.538.532.84 1.254.84 2.007v60.459a2.825 2.825 0 01-1.77 2.624 2.892 2.892 0 01-1.099.215z"/></g><defs><clipPath id="clip0_434_8661"><path fill="#fff" transform="translate(53.961 50.361)" d="M0 0h81.385v73.805H0z"/></clipPath></defs></svg>