<svg width="184" height="178" fill="none" xmlns="http://www.w3.org/2000/svg"><g clip-path="url(#clip0_434_8565)"><path fill-rule="evenodd" clip-rule="evenodd" d="M131.423 65.553a3.15 3.15 0 00-.962-2.259 3.334 3.334 0 00-2.323-.936h-13.14c-.871 0-1.707.337-2.323.936a3.15 3.15 0 00-.962 2.259v57.502c-.001.42.084.836.248 1.224.165.389.407.742.712 1.039.305.297.668.533 1.067.694.399.161.826.244 1.258.244h13.14c.432 0 .86-.083 1.259-.244a3.294 3.294 0 001.066-.694c.306-.297.547-.65.712-1.039.165-.388.249-.804.248-1.224V65.553zm6.57 0v57.502a9.46 9.46 0 01-2.888 6.776 10.008 10.008 0 01-6.967 2.813h-13.14a10.02 10.02 0 01-6.969-2.812 9.468 9.468 0 01-2.892-6.777V97.501H79.26l-25.89 6.296-1.6-6.203 27.087-6.481h26.28v-25.56a9.47 9.47 0 012.894-6.773 10.021 10.021 0 016.967-2.81h13.14a10.014 10.014 0 016.965 2.81 9.462 9.462 0 012.89 6.773zm-65.7 44.725a3.157 3.157 0 01-.966 2.259 3.34 3.34 0 01-2.325.935h-6.57a3.339 3.339 0 01-2.321-.937 3.157 3.157 0 01-.964-2.257v-3.194h-6.57v3.194a9.462 9.462 0 002.89 6.772 10.012 10.012 0 006.965 2.811h6.57a10.016 10.016 0 006.969-2.808 9.465 9.465 0 002.892-6.775v-6.388h-6.57v6.388zm13.14-67.091H69.008v-6.389h-6.57v6.389H46.015v6.388H85.44l-.007-6.389zM53.377 91.013l26.28-6.388-1.594-6.196-26.287 6.389 1.601 6.195zm24.686-25.367l-26.287 6.388 1.601 6.202 26.28-6.388-1.594-6.202zm1.594-6.582l-26.28 6.389-1.6-6.196 26.286-6.388 1.594 6.195z" fill="#000"/></g><defs><clipPath id="clip0_434_8565"><path fill="#fff" transform="translate(46 36.798)" d="M0 0h92v95.846H0z"/></clipPath></defs></svg>