<svg width="184" height="178" fill="none" xmlns="http://www.w3.org/2000/svg"><g clip-path="url(#clip0_434_8604)" fill="#000"><path d="M100.456 45.617v-7.744c0-.777-.319-1.523-.886-2.073a3.087 3.087 0 00-2.141-.863c-14.586.037-28.564 5.66-38.877 15.638-10.313 9.978-16.123 23.5-16.16 37.611 0 .777.32 1.522.887 2.07a3.08 3.08 0 002.14.859h8.005c.572 8.178 3.565 16.023 8.622 22.6 5.058 6.576 11.966 11.604 19.899 14.483a45.516 45.516 0 0024.836 1.754c8.281-1.734 15.871-5.738 21.862-11.534 5.991-5.796 10.131-13.138 11.923-21.15a41.365 41.365 0 00-1.813-24.025c-2.976-7.675-8.174-14.357-14.972-19.25-6.798-4.893-14.908-7.789-23.361-8.341l.036-.035zm-6.055-4.752v15.36c-7.733.698-14.972 3.987-20.465 9.3-5.493 5.313-8.895 12.314-9.618 19.796h-15.77c.735-11.54 5.798-22.424 14.239-30.61 8.44-8.185 19.68-13.108 31.607-13.846h.007zm3.028 84.16c-9.57-.022-18.783-3.525-25.806-9.813-7.024-6.289-11.346-14.904-12.108-24.133h7.728c.804 0 1.575-.308 2.144-.857a2.887 2.887 0 00.89-2.071c.022-6.96 2.889-13.63 7.976-18.552 5.087-4.923 11.98-7.698 19.176-7.72.397 0 .79-.076 1.158-.223a3.05 3.05 0 00.982-.635 2.94 2.94 0 00.657-.95 2.85 2.85 0 00.23-1.121v-7.476c9.814.744 18.949 5.137 25.488 12.256 6.539 7.12 9.972 16.413 9.581 25.929-.392 9.515-4.579 18.515-11.682 25.109-7.103 6.594-16.57 10.27-26.414 10.257z"/><path d="M97.428 70.467a18.826 18.826 0 00-10.212 2.997c-3.023 1.954-5.379 4.731-6.77 7.98A17.245 17.245 0 0079.4 91.72c.71 3.45 2.46 6.618 5.03 9.105a18.58 18.58 0 009.412 4.866 18.96 18.96 0 0010.621-1.012c3.359-1.346 6.23-3.625 8.25-6.55a17.378 17.378 0 003.097-9.879c-.007-4.713-1.946-9.232-5.392-12.566-3.446-3.333-8.117-5.209-12.99-5.216zm0 29.602a12.62 12.62 0 01-6.85-2.007 12.02 12.02 0 01-4.544-5.351 11.565 11.565 0 01-.704-6.892 11.81 11.81 0 013.374-6.108 12.462 12.462 0 016.314-3.264 12.713 12.713 0 017.124.68 12.247 12.247 0 015.532 4.396 11.654 11.654 0 012.075 6.628c-.014 3.157-1.316 6.18-3.624 8.413-2.307 2.232-5.433 3.492-8.697 3.505z"/><path d="M97.429 83.3c-.992 0-1.961.285-2.786.818a4.888 4.888 0 00-1.847 2.177 4.704 4.704 0 00-.285 2.802 4.812 4.812 0 001.372 2.484 5.068 5.068 0 002.568 1.327 5.17 5.17 0 002.896-.276 4.98 4.98 0 002.251-1.786 4.738 4.738 0 00.845-2.695c0-1.286-.529-2.52-1.469-3.43a5.1 5.1 0 00-3.545-1.42zm-16.272 24.147c0 .696-.213 1.377-.613 1.955a3.62 3.62 0 01-1.633 1.297 3.755 3.755 0 01-2.102.2 3.681 3.681 0 01-1.863-.963 3.488 3.488 0 01-.996-1.802 3.414 3.414 0 01.207-2.034 3.551 3.551 0 011.34-1.58 3.733 3.733 0 012.022-.593 3.7 3.7 0 012.572 1.031 3.462 3.462 0 011.066 2.489zm16.272 4.548c-.72 0-1.424.206-2.022.593a3.549 3.549 0 00-1.34 1.579 3.415 3.415 0 00-.207 2.034c.14.683.487 1.31.996 1.802a3.674 3.674 0 001.863.964 3.746 3.746 0 002.102-.201 3.612 3.612 0 001.633-1.296c.4-.579.613-1.259.613-1.955a3.518 3.518 0 00-1.082-2.473 3.757 3.757 0 00-2.556-1.047zm17.443-6.977a3.491 3.491 0 00-1.016 1.801 3.412 3.412 0 00.194 2.044c.274.647.74 1.201 1.34 1.591.6.39 1.306.598 2.029.598.723 0 1.429-.208 2.029-.598.6-.39 1.066-.944 1.339-1.591a3.412 3.412 0 00.195-2.044 3.491 3.491 0 00-1.016-1.801 3.554 3.554 0 00-1.163-.775 3.643 3.643 0 00-2.768 0c-.438.18-.833.444-1.163.775zm10.755-20.303c-.719 0-1.423.207-2.021.594a3.547 3.547 0 00-1.34 1.58 3.404 3.404 0 00-.207 2.033c.14.683.487 1.31.995 1.802a3.682 3.682 0 001.863.964 3.755 3.755 0 002.103-.2 3.616 3.616 0 001.633-1.297c.399-.579.613-1.26.613-1.956a3.355 3.355 0 00-.257-1.358 3.436 3.436 0 00-.787-1.152 3.579 3.579 0 00-1.191-.761 3.67 3.67 0 00-1.404-.249zm-10.755-18.289a3.487 3.487 0 00-1.016 1.801 3.41 3.41 0 00.194 2.044c.274.647.74 1.2 1.34 1.59a3.733 3.733 0 004.058.001c.6-.39 1.066-.944 1.339-1.591a3.41 3.41 0 00.195-2.044 3.487 3.487 0 00-1.016-1.8 3.54 3.54 0 00-1.163-.778 3.626 3.626 0 00-3.931.777z"/></g><defs><clipPath id="clip0_434_8604"><path fill="#fff" transform="translate(42.392 34.902)" d="M0 0h99.216v95.98H0z"/></clipPath></defs></svg>