<svg width="184" height="178" fill="none" xmlns="http://www.w3.org/2000/svg"><g clip-path="url(#clip0_434_8637)" fill="#000"><path d="M65.537 112.976a2.575 2.575 0 01-.496-.045l-10.62-1.866a4.92 4.92 0 01-3.264-1.726c-1.362-1.604-1.725-4.008-1.07-7.153.462-2.243 1.208-4.691 3.237-5.81 2.03-1.118 4.045-.396 5.287 0l.245.096 10.778 4.736c.51.228.938.597 1.229 1.062l2.94 4.742a2.604 2.604 0 01.218 2.306 2.678 2.678 0 01-.67.995c-.297.279-.655.49-1.047.617l-5.882 1.918a2.916 2.916 0 01-.885.128zm-10.144-7.185l9.912 1.745 1.93-.639-.72-1.157-9.873-4.34a10.92 10.92 0 00-.589-.179 10.13 10.13 0 00-.568 2.001 5.82 5.82 0 00-.092 2.569zm36.604 7.185a6.855 6.855 0 01-3.72-1.088 6.527 6.527 0 01-2.47-2.903 6.28 6.28 0 01-.384-3.741 6.41 6.41 0 011.829-3.317 6.761 6.761 0 013.426-1.775 6.9 6.9 0 013.868.364 6.653 6.653 0 013.006 2.382 6.292 6.292 0 01.625 6.075 6.465 6.465 0 01-1.449 2.102 6.706 6.706 0 01-2.17 1.405 6.879 6.879 0 01-2.561.496zm0-7.581c-.228 0-.45.065-.64.187a1.129 1.129 0 00-.423.5c-.087.203-.11.426-.065.642.044.216.154.414.314.57a1.187 1.187 0 001.253.241c.21-.084.39-.227.517-.41a1.087 1.087 0 00-.143-1.404 1.159 1.159 0 00-.813-.326zM42.05 52.483c-1.982 0-8.822 0-8.822 3.79 0 3.791 10.778 3.791 10.778 3.791v-5.689a1.8 1.8 0 00-.132-.744 1.852 1.852 0 00-.428-.632 1.924 1.924 0 00-.653-.413 1.975 1.975 0 00-.77-.128l.027.025zm76.407 60.493c-.298 0-.595-.045-.879-.134l-5.881-1.918a2.793 2.793 0 01-1.048-.618 2.678 2.678 0 01-.671-.994 2.613 2.613 0 01.219-2.306l2.94-4.743c.29-.465.718-.835 1.229-1.061l10.779-4.736.244-.096c1.236-.41 3.305-1.106 5.287 0 1.983 1.106 2.782 3.566 3.245 5.81.661 3.145.291 5.548-1.071 7.152a4.91 4.91 0 01-3.264 1.726l-10.62 1.867a2.63 2.63 0 01-.509.051zm-1.731-6.06l1.929.64 9.913-1.745a5.83 5.83 0 00-.126-2.557c-.12-.684-.31-1.354-.568-2.001-.145.039-.337.096-.588.179l-9.873 4.34-.687 1.144zm25.244-54.433a1.978 1.978 0 00-.77.128 1.93 1.93 0 00-.653.414c-.186.18-.331.395-.428.632-.096.236-.141.49-.132.744v5.689s10.779 0 10.779-3.79c0-3.791-6.86-3.791-8.823-3.791l.027-.026zm-8.816 89.407H50.84a9.294 9.294 0 01-3.57-.598 9.066 9.066 0 01-3.039-1.908c-3.007-2.946-3.04-7.299-3.033-7.785v-5.187c0-.711.291-1.393.81-1.896a2.822 2.822 0 011.959-.789H140a2.823 2.823 0 011.958.789 2.64 2.64 0 01.811 1.896v5.219c0 .454-.001 4.807-3.034 7.753a9.048 9.048 0 01-3.026 1.903 9.285 9.285 0 01-3.556.603zm-86.399-12.8v2.541c0 1.163.298 4.902 4.084 4.902h82.315c3.787 0 4.084-3.739 4.084-4.889v-2.554H46.755zm-6.357-38.077v21.509h-3.635V91.013h3.615m2.604-5.356H34.16c-2.934 0-2.934 2.844-2.934 2.844v26.533s0 2.844 2.934 2.844h8.822s2.94 0 2.94-2.844V88.501c0-2.844-2.94-2.844-2.94-2.844zm104.228 5.356v21.509h-3.614V91.013h3.614zm2.597-5.356h-8.815s-2.941 0-2.941 2.844v26.533c0 2.844 2.941 2.844 2.941 2.844h8.815c2.941 0 2.941-2.844 2.941-2.844V88.501s0-2.844-2.941-2.844zM130.213 60.85H53.78a2.84 2.84 0 01-1.378-.353 2.727 2.727 0 01-1.014-.97 2.61 2.61 0 01-.027-2.665c.35-.601 8.591-14.804 12.054-19.342 3.404-4.436 15.986-4.775 19.76-4.775h17.637c3.774 0 16.356.352 19.951 4.948 3.509 4.474 11.539 18.587 11.895 19.175a2.607 2.607 0 01-.042 2.654 2.72 2.72 0 01-1.011.963 2.838 2.838 0 01-1.372.352l-.02.013zm-71.681-5.363h66.963c-2.643-4.57-6.979-11.792-9.146-14.554-1.322-1.674-9.252-2.831-15.537-2.831H83.174c-6.965 0-14.26 1.278-15.311 2.614-2.188 2.844-6.602 10.17-9.331 14.771zm54.632 35.667H95.816a2.824 2.824 0 01-1.958-.788 2.64 2.64 0 01-.81-1.897c.004-.284.03-.569.079-.85v-.14a1.096 1.096 0 00-.353-.78 1.172 1.172 0 00-.82-.31 1.169 1.169 0 00-.806.342 1.093 1.093 0 00-.32.792v.25a2.611 2.611 0 01-.464 2.318 2.748 2.748 0 01-.963.777 2.845 2.845 0 01-1.217.286H70.837a2.843 2.843 0 01-1.36-.338 2.731 2.731 0 01-1.013-.94l-1.91-3.075-9.873-4.34-.568-.179a8.311 8.311 0 00-.258.716c-.133.45-.385.857-.731 1.182a2.788 2.788 0 01-1.244.672 2.85 2.85 0 01-1.424-.016 2.782 2.782 0 01-1.227-.7l-5.286-5.114a2.681 2.681 0 01-.606-.88 2.61 2.61 0 01-.207-1.037c0-5.44 5.174-7.421 8.65-7.421h76.433c3.476 0 8.651 1.981 8.651 7.42a2.658 2.658 0 01-.813 1.918l-5.287 5.114a2.778 2.778 0 01-1.226.7 2.855 2.855 0 01-1.425.016 2.79 2.79 0 01-1.243-.672 2.654 2.654 0 01-.732-1.182 8.564 8.564 0 00-.257-.716l-.569.18-9.873 4.34-1.91 3.074a2.724 2.724 0 01-1.01.938 2.84 2.84 0 01-1.355.34zM98.44 85.791h13.151l1.546-2.486a2.75 2.75 0 011.229-1.061l10.779-4.743.238-.09c1.268-.428 3.192-1.073 5.088-.134.323.163.625.363.899.595l1.718-1.662c-.615-1.042-2.3-1.163-2.894-1.17H53.78c-.575 0-2.26.128-2.881 1.17l1.725 1.662a4.43 4.43 0 01.898-.595c1.897-.94 3.82-.294 5.089.135l.238.089 10.778 4.743c.511.225.94.595 1.23 1.06l1.54 2.487h13.15a6.472 6.472 0 012.4-3.413 6.844 6.844 0 014.046-1.316c1.461 0 2.882.462 4.046 1.316a6.473 6.473 0 012.401 3.413z"/></g><defs><clipPath id="clip0_434_8637"><path fill="#fff" transform="translate(31.245 32.745)" d="M0 0h121.509v112.509H0z"/></clipPath></defs></svg>