<svg width="184" height="178" fill="none" xmlns="http://www.w3.org/2000/svg"><g clip-path="url(#clip0_434_8531)" fill="#000"><path d="M98.096 124.427h-21.59a43.826 43.826 0 01-16.189-2.873c-5.143-1.966-9.823-4.883-13.77-8.58-3.945-3.698-7.079-8.104-9.217-12.961a38.02 38.02 0 01-3.24-15.333 38.023 38.023 0 013.24-15.334c2.138-4.857 5.272-9.263 9.218-12.96 3.946-3.698 8.626-6.615 13.77-8.581a43.828 43.828 0 0116.189-2.873h21.59a3.4 3.4 0 012.341.921c.621.59.97 1.39.97 2.223v73.207a3.075 3.075 0 01-.972 2.221c-.62.59-1.462.921-2.34.923zm-21.59-73.206c-9.256.127-18.089 3.708-24.587 9.969-6.5 6.26-10.142 14.699-10.142 23.49 0 8.79 3.643 17.229 10.142 23.49 6.498 6.261 15.33 9.842 24.588 9.969h18.278V51.221H76.507zm44.321 4.619v-7.337l24.062 5.708v7.344l-24.062-5.716zm0 31.435v-7.343l24.062 5.715v7.344l-24.062-5.716zm0 31.437v-7.344l24.062 5.708v7.344l-24.062-5.708z"/></g><defs><clipPath id="clip0_434_8531"><path fill="#fff" transform="translate(34.667 44.932)" d="M0 0h110.222v79.495H0z"/></clipPath></defs></svg>