<svg width="184" height="178" fill="none" xmlns="http://www.w3.org/2000/svg"><g clip-path="url(#clip0_434_8571)" fill="#000"><path d="M101.525 48.75c2.219-.002 4.355.794 5.977 2.227a7.718 7.718 0 011.967 2.597c.456.986.688 2.053.681 3.13v25.412a7.423 7.423 0 01-.708 3.13 7.804 7.804 0 01-1.981 2.597c-1.62 1.428-3.748 2.227-5.963 2.24h-.9l-54.501-3.99c-2.14-.156-4.14-1.064-5.608-2.545-1.468-1.481-2.298-3.429-2.325-5.46v-17.35c.024-2.033.853-3.983 2.323-5.465 1.47-1.482 3.474-2.389 5.616-2.54l54.737-4.008h.672m0-5.727c-.383 0-.773 0-1.163.045L45.626 47.05c-3.655.262-7.074 1.813-9.58 4.346-2.504 2.533-3.913 5.864-3.946 9.334v17.415c.033 3.47 1.442 6.8 3.947 9.334 2.505 2.533 5.924 4.084 9.58 4.345l54.722 4.009h1.136c3.743-.014 7.343-1.361 10.084-3.773a13.525 13.525 0 003.421-4.521 12.858 12.858 0 001.204-5.443V56.71a12.775 12.775 0 00-1.196-5.447 13.431 13.431 0 00-3.429-4.517c-2.735-2.395-6.324-3.724-10.05-3.722l-.007-.026z"/><path d="M35.81 74.964v-5.09h29.345a3.751 3.751 0 002.535-.992 3.5 3.5 0 00.823-1.132c.192-.424.294-.881.3-1.344a3.364 3.364 0 00-1.076-2.436 3.627 3.627 0 00-1.183-.752 3.79 3.79 0 00-1.399-.26H35.811v-5.09h29.344a9.402 9.402 0 013.459.644 9.008 9.008 0 012.928 1.856 8.497 8.497 0 011.972 2.795 8.118 8.118 0 01.676 3.3 8.125 8.125 0 01-.727 3.29 8.517 8.517 0 01-2.015 2.768c-1.676 1.559-3.93 2.436-6.28 2.443H35.812zm108.377 51.576h-.147a5.342 5.342 0 01-2.622-.763l-49.56-30.643 3.307-4.791 48.088 29.714V73.558l-30.79-5.726 1.17-5.625 31.549 5.867a5.134 5.134 0 012.987 1.697 4.647 4.647 0 011.128 3.12v48.807c0 .866-.246 1.715-.712 2.459a4.973 4.973 0 01-1.937 1.772 5.188 5.188 0 01-2.407.637l-.054-.026z"/></g><defs><clipPath id="clip0_434_8571"><path fill="#fff" transform="translate(32.113 43.024)" d="M0 0h117.17v83.517H0z"/></clipPath></defs></svg>