<svg width="184" height="178" fill="none" xmlns="http://www.w3.org/2000/svg"><g clip-path="url(#clip0_434_8617)" fill="#000"><path d="M91.503 50.025c16.449 0 33.547 2.825 50.825 8.398 4.83 1.563 9.474 3.274 13.837 5.125l-10.617 44.241H37.604l-10.757-44.24c4.356-1.833 9-3.543 13.83-5.126 17.279-5.573 34.376-8.398 50.826-8.398zm0-5.765c-18.04 0-35.886 3.26-52.743 8.699-5.906 1.922-11.258 3.946-15.955 5.983-1.637.705-2.913 1.358-2.913 1.358l12.942 53.235h117.498l12.782-53.247s-1.283-.641-2.914-1.346c-4.677-2.037-10.022-4.074-15.955-5.983-16.857-5.439-34.743-8.7-52.742-8.7z"/><path d="M75.808 112.465l-5.272-21.909-20.371-3.888 1.176-5.65 22.276 4.247a3.05 3.05 0 011.507.757c.416.387.707.88.838 1.421l5.706 23.703-5.86 1.319zm42.875 0l-5.272-21.909-20.371-3.888 1.175-5.65 22.276 4.247c.568.108 1.092.37 1.508.757.416.387.707.88.837 1.421l5.706 23.703-5.859 1.319z"/></g><defs><clipPath id="clip0_434_8617"><path fill="#fff" transform="translate(19.892 44.26)" d="M0 0h143.222v69.276H0z"/></clipPath></defs></svg>