<svg width="184" height="178" fill="none" xmlns="http://www.w3.org/2000/svg"><g clip-path="url(#clip0_434_8652)" fill="#000"><path d="M81.559 115.199a3.005 3.005 0 001.076 1.817 3.24 3.24 0 002.046.714h14.688a3.243 3.243 0 002.046-.714 3.004 3.004 0 001.076-1.817l.125-.702H81.465l.094.702zm-.057-5.524h21.008v-5.817H81.502v5.817zm0-10.639h21.008v-4.12H81.502v4.12zM73.465 90.1h37.088v-5.865H73.465V90.1zm8.175 32.074a7.506 7.506 0 01-3.647-2.771 7.68 7.68 0 01-1.511-4.228v-.57h-3.747v-4.798h3.746v-5.913h-3.746v-4.798h3.746v-4.138H70.95a2.551 2.551 0 01-1.767-.703 2.352 2.352 0 01-.731-1.696V81.824c0-.636.263-1.247.731-1.697a2.551 2.551 0 011.767-.702h7.394l1.873-39.463 4.996-.072-1.874 39.535h17.299L98.763 39.89h4.996l1.873 39.535h7.432a2.55 2.55 0 011.766.702c.469.45.732 1.06.732 1.697v10.681c0 .317-.065.63-.191.922a2.505 2.505 0 01-1.359 1.305 2.59 2.59 0 01-.961.184h-5.526v4.09h3.747v4.798h-3.747v5.835h3.747v4.798h-3.747v.6c-.104 2.016-1.009 3.917-2.529 5.312a8.4 8.4 0 01-5.64 2.185h-12.27s-3.691.15-5.446-.36z"/><path d="M103.628 44.412v-4.594H80.359v4.594h23.269z"/><path d="M89.483 41.204v-7.989h5.015v7.875m-4.64 81.456v3.784H99.5v4.798H87.335a2.598 2.598 0 01-.964-.182 2.521 2.521 0 01-.816-.526 2.379 2.379 0 01-.73-1.703v-6.423"/></g><defs><clipPath id="clip0_434_8652"><path fill="#fff" transform="translate(68.444 33.215)" d="M0 0h47.111v97.943H0z"/></clipPath></defs></svg>