<svg width="184" height="178" fill="none" xmlns="http://www.w3.org/2000/svg"><g clip-path="url(#clip0_434_8540)" fill="#000"><path d="M135.931 43.934c-9.656-9.383-22.378-15.235-35.996-16.559-13.617-1.323-27.288 1.963-38.68 9.3C49.86 44.014 41.451 54.947 37.46 67.612c-3.992 12.664-3.318 26.276 1.905 38.514 5.223 12.238 14.672 22.345 26.737 28.596 12.065 6.252 25.998 8.261 39.423 5.686 13.425-2.575 25.511-9.576 34.197-19.808 8.686-10.232 13.434-23.062 13.435-36.302a55.142 55.142 0 00-4.439-21.849c-2.957-6.928-7.303-13.22-12.788-18.514zm9.819 59.027l-15.872-14.385c.202-1.406.315-2.823.336-4.242v-2.125l18.75 8.492a59.888 59.888 0 01-3.214 12.26zm-8.418 14.54l-10.477-18.464a40.86 40.86 0 002.196-5.923l15.038 13.726a59.858 59.858 0 01-6.757 10.624v.037zm-20.273-6.212l3.888 19.604a58.498 58.498 0 01-11.992 4.739l2.701-20.915a36.402 36.402 0 005.403-3.428zm-22.798 3.924c-6.315.002-12.49-1.809-17.74-5.202-5.252-3.393-9.346-8.217-11.763-13.861a29.952 29.952 0 01-1.82-17.847c1.233-5.992 4.274-11.496 8.74-15.816 4.465-4.32 10.155-7.263 16.349-8.454a32.927 32.927 0 0118.448 1.76c5.835 2.338 10.821 6.298 14.329 11.379 3.507 5.08 5.379 11.053 5.377 17.162-.032 8.184-3.413 16.023-9.403 21.803-5.99 5.78-14.102 9.029-22.563 9.039l.046.037zm-19.254 18.953l14.861-15.362c1.457.192 2.924.303 4.393.333h2.028l-8.785 17.968a55.31 55.31 0 01-12.497-2.961v.022zm-15.03-8.144l19.086-10.128c1.968.853 4 1.563 6.076 2.125l-14.188 14.54a56.573 56.573 0 01-10.975-6.537zM41.18 98.519l21.428 2.613a27.132 27.132 0 003.712 5.227l-20.265 3.761a62.867 62.867 0 01-4.898-11.601h.023zm1.53-32.849l15.88 14.385a35.992 35.992 0 00-.337 4.242v1.962l-18.596-8.47a49.165 49.165 0 013.061-12.097l-.008-.022zm8.419-14.54l10.469 18.464a36.087 36.087 0 00-2.197 5.886l-15.03-13.726A54.507 54.507 0 0151.13 51.13zm7.767 39.704a25.283 25.283 0 001.86 6.049L40.14 94.425a50.497 50.497 0 01-1.01-10.128v-2.288l19.767 8.825zm12.497-33.493l-3.88-19.604A58.344 58.344 0 0179.507 33l-2.702 20.915a36.874 36.874 0 00-5.41 3.427zm42.091-22.876L98.623 49.827a37.068 37.068 0 00-4.392-.333h-2.197l8.786-17.968a54.705 54.705 0 0112.665 2.961v-.022zm14.862 8.144l-18.918 10.127a38.347 38.347 0 00-6.076-2.124l14.181-14.54a55.127 55.127 0 0110.813 6.537zm18.933 27.466l-21.619-2.613a36.667 36.667 0 00-3.719-5.227l20.272-3.76a47.955 47.955 0 015.066 11.6zm-17.739 7.522a25.243 25.243 0 00-1.852-6.048l20.602 2.613a50.398 50.398 0 011.017 10.128v2.287l-19.767-8.98zm10.477-22.713L118.735 58.8a22.266 22.266 0 00-5.066-3.753l18.076-9.625c.49.393.941.829 1.347 1.303a46.298 46.298 0 016.926 8.144v.015zM96.611 31.193l-9.29 18.952a27.065 27.065 0 00-6.253 1.8l2.709-19.938a55.596 55.596 0 0110.469-.977c.78.135 1.573.19 2.365.163zm-32.77 8.654l4.056 20.59a29.258 29.258 0 00-4.056 4.9l-9.949-17.48 1.355-1.31a67.07 67.07 0 018.61-6.7h-.016zM48.306 113.54l21.282-3.924a29.263 29.263 0 005.067 3.924l-18.077 9.624-1.346-1.303a55.94 55.94 0 01-6.888-8.336l-.038.015zm43.575 23.854l9.122-18.953a26.95 26.95 0 006.245-1.799l-2.533 19.937a55.516 55.516 0 01-10.469.977c-.842 0-1.691-.162-2.365-.162zm32.77-8.818l-4.056-20.588a38.389 38.389 0 004.056-4.901l9.949 17.479c-.411.475-.864.913-1.355 1.31a46.81 46.81 0 01-8.61 6.663l.016.037z"/><path d="M94.215 142.058c-9.806-.02-19.457-2.377-28.099-6.862-8.641-4.486-16.007-10.962-21.446-18.856-5.44-7.894-8.785-16.963-9.74-26.405a56.043 56.043 0 014.264-27.73c3.755-8.765 9.683-16.5 17.262-22.52 7.58-6.02 16.575-10.142 26.192-12a61.633 61.633 0 0128.947 1.346c9.388 2.743 17.933 7.68 24.88 14.377 8.376 8.075 14.084 18.375 16.4 29.594 2.317 11.218 1.136 22.849-3.391 33.417-4.527 10.568-12.197 19.598-22.037 25.943-9.84 6.345-21.406 9.719-33.232 9.696zm0-114.011c-13.424.034-26.42 4.568-36.777 12.83C47.081 49.14 40.005 60.62 37.414 73.363c-2.59 12.742-.537 25.959 5.813 37.401 6.35 11.441 16.603 20.4 29.013 25.351 12.41 4.951 26.21 5.587 39.052 1.802 12.841-3.786 23.929-11.761 31.375-22.566 7.447-10.805 10.792-23.773 9.466-36.695-1.326-12.923-7.241-25.002-16.738-34.18-5.397-5.243-11.816-9.397-18.885-12.224a59.53 59.53 0 00-22.295-4.241v.037zm0 110.309a13.23 13.23 0 01-1.392-.089c-.36-.037-.697-.074-.972-.074h-1.202l9.804-20.426.397-.059a26.045 26.045 0 006.077-1.747l1.209-.489-2.755 21.729-.543.104a56.228 56.228 0 01-10.623.992v.059zm-1.201-1.562c.398.049.8.076 1.201.081 3.28.005 6.555-.282 9.781-.858l2.296-18.161a26.545 26.545 0 01-4.806 1.311l-8.472 17.627zm-5.097 1.133l-.55-.06a56.606 56.606 0 01-12.674-2.961l-1.072-.392 15.903-16.443.827.089c1.269.161 2.546.252 3.826.274h3.237l-9.497 19.493zm-11.602-4.05a54.847 54.847 0 0010.714 2.451l8.028-16.436h-.819a35.54 35.54 0 01-4.033-.281h-.06l-13.83 14.266zm31.691 2.791l2.893-22.395.344-.178a36.343 36.343 0 005.296-3.361l.987-.74 4.232 21.344-.49.259a59.459 59.459 0 01-12.152 4.804l-1.11.267zm4.316-21.47l-2.541 19.375a57.956 57.956 0 0010.232-4.109l-3.512-17.879a38.976 38.976 0 01-4.179 2.562v.051zm-41.241 18.25l-.505-.237a57.56 57.56 0 01-11.128-6.619l-.895-.696 20.418-10.838.337.14a44.679 44.679 0 005.969 2.088l1.27.304-15.466 15.858zm-9.765-7.33a55.67 55.67 0 009.42 5.523l12.934-13.259c-1.53-.459-3.061-1.074-4.592-1.681l-17.762 9.417zm62.753 3.702l-4.339-22.077.283-.281a36.432 36.432 0 003.972-4.805l.704-.97 10.837 19.042-.406.392c-.161.156-.306.318-.444.466-.28.333-.602.631-.956.889a47.593 47.593 0 01-8.702 6.759l-.949.585zm-2.678-21.536l3.765 19.137a47.312 47.312 0 007.53-6.011l.123-.089c.266-.2.507-.428.719-.681l.115-.126-9.107-15.976a34.54 34.54 0 01-3.145 3.687v.059zm-64.973 15.872l-1.76-1.702a56.957 56.957 0 01-7.033-8.462l-.597-.918 22.782-4.198.284.281a29.38 29.38 0 004.936 3.82l1.094.667-19.706 10.512zm-6.888-10.038a59.137 59.137 0 006.222 7.307l.926.895 16.461-8.78a29.945 29.945 0 01-3.826-3.065l-19.783 3.643zm87.641 4.76L125.96 99.104l.137-.334c.867-1.87 1.588-3.8 2.158-5.774l.322-1.23 16.408 14.896-.238.489a60.27 60.27 0 01-6.841 10.75l-.735.977zm-9.52-19.863l9.727 17.146a59.179 59.179 0 005.724-9.091l-13.706-12.52c-.482 1.444-1.11 2.947-1.738 4.406l-.007.059zm-33.443 16.961c-6.467.001-12.789-1.853-18.166-5.327-5.378-3.475-9.57-8.414-12.045-14.194a30.671 30.671 0 01-1.862-18.275c1.261-6.135 4.375-11.771 8.948-16.195 4.572-4.423 10.398-7.436 16.74-8.656a33.719 33.719 0 0118.892 1.802c5.974 2.394 11.08 6.45 14.672 11.651 3.591 5.203 5.508 11.318 5.506 17.574-.026 8.372-3.479 16.392-9.603 22.307-6.124 5.915-14.421 9.242-23.075 9.254l-.007.059zm0-61.766c-6.164-.002-12.19 1.765-17.315 5.077-5.126 3.312-9.121 8.02-11.481 13.528a29.233 29.233 0 00-1.777 17.418c1.202 5.848 4.17 11.221 8.527 15.437 4.358 4.217 9.91 7.089 15.956 8.253a32.135 32.135 0 0018.006-1.715c5.694-2.281 10.562-6.145 13.986-11.103 3.425-4.957 5.253-10.786 5.253-16.749.008-8-3.269-15.677-9.11-21.34-5.84-5.665-13.767-8.853-22.038-8.865l-.007.059zM45.658 111l-.268-.489a63.61 63.61 0 01-4.95-11.741l-.33-1.08 22.96 2.805.19.334a25.808 25.808 0 003.613 5.086l.903.977-22.117 4.109zm-3.413-11.557a62.807 62.807 0 004.24 9.891l18.42-3.413a28.601 28.601 0 01-2.763-4.05l-19.897-2.428zm103.788 4.835l-16.997-15.392.046-.378c.2-1.376.313-2.763.337-4.153v-3.294l20.356 9.224-.084.548a60.634 60.634 0 01-3.252 12.408l-.406 1.037zm-15.382-15.962l14.747 13.326a59.118 59.118 0 002.686-10.513l-17.135-7.766v.963a31.347 31.347 0 01-.291 3.93l-.007.06zm-68.662 9.461l-22.461-2.672-.115-.518a50.977 50.977 0 01-1.025-10.276v-3.45l21.221 9.476.061.392a24.412 24.412 0 001.806 5.871l.513 1.177zm-21.175-4.012l18.772 2.22a24.427 24.427 0 01-1.362-4.648l-18.306-8.144v1.133a49.252 49.252 0 00.896 9.424v.015zm109.229-6.004l-21.221-9.625-.062-.385a24.1 24.1 0 00-1.813-5.878l-.505-1.184 22.461 2.85.107.526a50.843 50.843 0 011.033 10.268v3.428zM130.207 77.1l18.306 8.329v-1.126a49.933 49.933 0 00-.896-9.461l-18.765-2.384a25.054 25.054 0 011.355 4.627v.015zM59.035 87.466L38.862 78.24l.069-.526a49.71 49.71 0 013.061-12.267l.398-1.036 16.997 15.391-.092.792a32.083 32.083 0 00-.283 3.746l.023 3.125zM40.515 77.36l16.99 7.766v-.785a34.29 34.29 0 01.29-3.908v-.06L43.048 67.047a48 48 0 00-2.563 10.269l.03.044zm19.362-.437L43.484 61.961l.245-.489a54.47 54.47 0 016.888-10.764l.72-.866 11.203 19.76-.16.34a35.214 35.214 0 00-2.151 5.752l-.352 1.23zM45.337 61.62l13.698 12.512a38.606 38.606 0 011.745-4.442l-9.734-17.16a54.495 54.495 0 00-5.725 9.046l.016.044zm102.977 9.373l-23.166-2.828-.191-.333a35.915 35.915 0 00-3.643-5.123l-.765-.955 22.04-4.087.276.444a48.542 48.542 0 015.142 11.78l.307 1.102zm-22.194-4.175l20.074 2.428a46.517 46.517 0 00-4.393-9.898l-18.505 3.428a36.428 36.428 0 012.817 3.997l.007.045zm-62.348 0L52.905 47.754l1.76-1.703a66.852 66.852 0 018.732-6.788l.957-.615L68.7 60.71l-.283.281a27.84 27.84 0 00-3.95 4.775l-.696 1.052zm-8.969-18.805l9.061 15.903a29.525 29.525 0 013.168-3.702l-3.757-19.093a68.287 68.287 0 00-7.561 5.99l-.91.902zm63.657 11.623l-.291-.28a21.59 21.59 0 00-4.89-3.629l-1.225-.65 19.791-10.602.405.392c.169.163.329.303.49.437.339.266.642.572.903.91a46.146 46.146 0 016.979 8.24l.643.933-22.805 4.25zm-3.276-4.538a24.426 24.426 0 013.781 2.962l19.744-3.636a42.76 42.76 0 00-6.122-7.114l-.115-.126a3.772 3.772 0 00-.704-.696l-.13-.118-16.454 8.728zm-44.28 3.613L66.68 37.367l.49-.259a59.287 59.287 0 0112.153-4.804l1.11-.297-2.893 22.395-.345.178a36.366 36.366 0 00-5.295 3.361l-.995.77zm-2.51-20.559l3.544 17.894a38.583 38.583 0 014.178-2.577l2.51-19.426a58.088 58.088 0 00-10.24 4.08l.009.029zm41.058 15.466l-.344-.156a37.045 37.045 0 00-5.954-2.08l-1.263-.304 15.467-15.858.505.237a56.383 56.383 0 0110.959 6.619l.887.696-20.257 10.846zm-4.683-3.34a41.478 41.478 0 014.591 1.681l17.602-9.41a54.279 54.279 0 00-9.252-5.522l-12.941 13.252zm-24.65 2.873l2.946-21.736.536-.104a56.187 56.187 0 0110.622-.992h.153c.73.126 1.471.175 2.212.148h1.209l-9.949 20.367-.405.06a26.1 26.1 0 00-6.07 1.746l-1.254.511zm4.316-20.492l-2.457 18.16a25.859 25.859 0 014.799-1.31l8.602-17.62a9.805 9.805 0 01-1.24-.14c-3.258.001-6.51.296-9.712.88l.008.03zm14.472 17.968l-.39-.045a35.966 35.966 0 00-4.294-.325h-3.406l9.536-19.508.543.059a56.23 56.23 0 0112.85 2.961l1.071.393-15.91 16.465zm-5.671-1.851h.987c1.37.016 2.737.113 4.094.288l13.776-14.266a54.286 54.286 0 00-10.86-2.45l-7.997 16.428z"/><path d="M94.215 75.146a9.688 9.688 0 00-5.26 1.536 9.225 9.225 0 00-3.49 4.105 8.874 8.874 0 00-.544 5.289 9.063 9.063 0 002.588 4.689 9.561 9.561 0 004.845 2.507 9.756 9.756 0 005.468-.522 9.405 9.405 0 004.246-3.373 8.943 8.943 0 001.591-5.087 8.867 8.867 0 00-.715-3.5 9.104 9.104 0 00-2.046-2.967 9.463 9.463 0 00-3.066-1.982 9.713 9.713 0 00-3.617-.695zm0 14.378a5.542 5.542 0 01-3.008-.879 5.277 5.277 0 01-1.996-2.347 5.077 5.077 0 01-.31-3.025 5.183 5.183 0 011.478-2.682 5.47 5.47 0 012.77-1.434 5.58 5.58 0 013.127.296 5.376 5.376 0 012.43 1.928 5.11 5.11 0 01.912 2.909 5.033 5.033 0 01-.396 2.009 5.173 5.173 0 01-1.17 1.704 5.374 5.374 0 01-1.76 1.134 5.517 5.517 0 01-2.077.387zm3.207 16.339H90.84v-3.924h6.58v3.924zm-6.413-43.139h6.581v3.923h-6.58v-3.923zm20.77 35.129l-3.375-1.955 3.206-5.56 3.375 1.962-3.206 5.553zM76.652 70.734l3.375 1.955-3.207 5.56-3.382-1.962 3.214-5.553zm35.127 0l3.214 5.553-3.383 1.962-3.206-5.56 3.375-1.955zM76.652 97.853L73.438 92.3l3.382-1.962 3.207 5.56-3.375 1.955z"/></g><defs><clipPath id="clip0_434_8540"><path fill="#fff" transform="translate(34.5 26.529)" d="M0 0h119.423v115.529H0z"/></clipPath></defs></svg>