<svg width="34" height="35" viewBox="0 0 34 35" fill="none" xmlns="http://www.w3.org/2000/svg">
<g clip-path="url(#clip0_401_2755)">
<path d="M17 7.5C11.48 7.5 7 11.98 7 17.5C7 23.02 11.48 27.5 17 27.5C22.52 27.5 27 23.02 27 17.5C27 11.98 22.52 7.5 17 7.5ZM12.07 23.78C12.5 22.88 15.12 22 17 22C18.88 22 21.51 22.88 21.93 23.78C20.57 24.86 18.86 25.5 17 25.5C15.14 25.5 13.43 24.86 12.07 23.78ZM23.36 22.33C21.93 20.59 18.46 20 17 20C15.54 20 12.07 20.59 10.64 22.33C9.62 20.99 9 19.32 9 17.5C9 13.09 12.59 9.5 17 9.5C21.41 9.5 25 13.09 25 17.5C25 19.32 24.38 20.99 23.36 22.33ZM17 11.5C15.06 11.5 13.5 13.06 13.5 15C13.5 16.94 15.06 18.5 17 18.5C18.94 18.5 20.5 16.94 20.5 15C20.5 13.06 18.94 11.5 17 11.5ZM17 16.5C16.17 16.5 15.5 15.83 15.5 15C15.5 14.17 16.17 13.5 17 13.5C17.83 13.5 18.5 14.17 18.5 15C18.5 15.83 17.83 16.5 17 16.5Z" fill="#ECE03D"/>
</g>
<defs>
<clipPath id="clip0_401_2755">
<rect width="34" height="34" fill="white" transform="translate(0 0.5)"/>
</clipPath>
</defs>
</svg>
