<svg width="24" height="26" viewBox="0 0 24 26" fill="none" xmlns="http://www.w3.org/2000/svg">
<g clip-path="url(#clip0_527_11103)">
<path d="M6.52679 5.64039C6.58666 6.5733 6.73635 7.48525 6.97585 8.35528L5.77834 9.61314C5.3692 8.35528 5.10974 7.02404 5.01992 5.64039H6.52679V5.64039ZM16.3663 18.24C17.2145 18.4916 18.0827 18.6488 18.9609 18.7117V20.2735C17.6436 20.1792 16.3763 19.9067 15.1688 19.4874L16.3663 18.24V18.24ZM7.48479 3.54395H3.99206C3.44321 3.54395 2.99414 4.01564 2.99414 4.59217C2.99414 14.435 10.5883 22.4119 19.9588 22.4119C20.5077 22.4119 20.9567 21.9402 20.9567 21.3637V17.7054C20.9567 17.1289 20.5077 16.6572 19.9588 16.6572C18.7214 16.6572 17.5139 16.4475 16.3962 16.0597C16.2964 16.0178 16.1867 16.0073 16.0869 16.0073C15.8274 16.0073 15.5779 16.1121 15.3784 16.3113L13.1829 18.6174C10.3588 17.0974 8.04363 14.676 6.60662 11.7096L8.80205 9.4035C9.08147 9.11 9.1613 8.70119 9.05153 8.33431C8.6823 7.16031 8.48271 5.90244 8.48271 4.59217C8.48271 4.01564 8.03365 3.54395 7.48479 3.54395Z" fill="#828A92"/>
</g>
<defs>
<clipPath id="clip0_527_11103">
<rect width="23.9501" height="25.1573" fill="white" transform="translate(0 0.399292)"/>
</clipPath>
</defs>
</svg>
