<svg width="34" height="34" viewBox="0 0 34 34" fill="none" xmlns="http://www.w3.org/2000/svg">
<path d="M1 17C1 8.16344 8.16344 1 17 1C25.8366 1 33 8.16344 33 17C33 25.8366 25.8366 33 17 33C8.16344 33 1 25.8366 1 17Z" fill="white" stroke="#828A92"/>
<path d="M17.0004 12.7478C18.3023 12.7478 19.1806 13.3102 19.6813 13.7801L21.638 11.8696C20.4363 10.7525 18.8724 10.0669 17.0004 10.0669C14.2887 10.0669 11.9468 11.623 10.8066 13.8879L13.0484 15.629C13.6108 13.9573 15.1669 12.7478 17.0004 12.7478Z" fill="#EA4335"/>
<path d="M23.656 17.1543C23.656 16.5842 23.6098 16.1682 23.5096 15.7368H17V18.3099H20.821C20.744 18.9493 20.328 19.9122 19.4036 20.5593L21.5914 22.2541C22.901 21.0447 23.656 19.2651 23.656 17.1543Z" fill="#4285F4"/>
<path d="M13.0559 18.3713C12.9096 17.9398 12.8248 17.4776 12.8248 17C12.8248 16.5224 12.9096 16.0601 13.0482 15.6287L10.8065 13.8877C10.3365 14.8275 10.0669 15.883 10.0669 17C10.0669 18.117 10.3365 19.1724 10.8065 20.1123L13.0559 18.3713Z" fill="#FBBC05"/>
<path d="M17 23.9337C18.872 23.9337 20.4436 23.3174 21.5914 22.2542L19.4036 20.5594C18.8181 20.9677 18.0323 21.2528 17 21.2528C15.1666 21.2528 13.6104 20.0433 13.0557 18.3716L10.814 20.1126C11.9541 22.3775 14.2883 23.9337 17 23.9337Z" fill="#34A853"/>
</svg>
