<svg width="24" height="24" viewBox="0 0 24 24" fill="none" xmlns="http://www.w3.org/2000/svg">
<path fill-rule="evenodd" clip-rule="evenodd" d="M11.2622 5.25206C11.4056 5.25183 11.56 5.2519 11.7265 5.25198L12.0009 5.25206C14.1997 5.25206 14.4603 5.25995 15.3285 5.29941C16.1315 5.33612 16.5672 5.47028 16.8575 5.583C17.2418 5.73226 17.5158 5.91068 17.8038 6.19891C18.0921 6.48713 18.2705 6.76163 18.4201 7.14593C18.5328 7.43586 18.6671 7.87163 18.7037 8.67454C18.7431 9.54264 18.7517 9.80341 18.7517 12.0011C18.7517 14.1988 18.7431 14.4596 18.7037 15.3277C18.667 16.1306 18.5328 16.5664 18.4201 16.8563C18.2708 17.2406 18.0921 17.5142 17.8038 17.8023C17.5156 18.0905 17.242 18.2689 16.8575 18.4182C16.5676 18.5314 16.1315 18.6652 15.3285 18.702C14.4604 18.7414 14.1997 18.75 12.0009 18.75C9.80204 18.75 9.54144 18.7414 8.67334 18.702C7.87043 18.6649 7.43466 18.5307 7.14421 18.418C6.75991 18.2688 6.48541 18.0903 6.19719 17.8021C5.90897 17.5139 5.73054 17.2401 5.58094 16.8556C5.46823 16.5657 5.33389 16.1299 5.29735 15.327C5.25789 14.4589 5.25 14.1981 5.25 11.9991C5.25 9.79998 5.25789 9.54058 5.29735 8.67248C5.33407 7.86957 5.46823 7.43381 5.58094 7.14352C5.7302 6.75923 5.90897 6.48473 6.19719 6.1965C6.48541 5.90828 6.75991 5.72986 7.14421 5.58026C7.43449 5.46703 7.87043 5.33321 8.67334 5.29632C9.43301 5.26201 9.72741 5.25172 11.2622 5.25V5.25206ZM16.3967 6.61924C15.8511 6.61924 15.4085 7.06135 15.4085 7.60709C15.4085 8.15266 15.8511 8.59528 16.3967 8.59528C16.9423 8.59528 17.3849 8.15266 17.3849 7.60709C17.3849 7.06153 16.9423 6.6189 16.3967 6.6189V6.61924ZM7.77191 12.0029C7.77191 9.66751 9.66534 7.77402 12.0007 7.77393C14.3362 7.77393 16.2292 9.66745 16.2292 12.0029C16.2292 14.3384 14.3364 16.231 12.0009 16.231C9.66544 16.231 7.77191 14.3384 7.77191 12.0029Z" fill="#ECE03D"/>
<path d="M12.0008 9.258C13.5168 9.258 14.7458 10.4869 14.7458 12.003C14.7458 13.5189 13.5168 14.748 12.0008 14.748C10.4848 14.748 9.25586 13.5189 9.25586 12.003C9.25586 10.4869 10.4848 9.258 12.0008 9.258Z" fill="#ECE03D"/>
</svg>
