<svg width="24" height="24" viewBox="0 0 24 24" fill="none" xmlns="http://www.w3.org/2000/svg">
<path d="M12.09 8.84121L12.1239 9.42512L11.5592 9.35362C9.50354 9.07954 7.70769 8.15005 6.18291 6.58898L5.43746 5.8144L5.24545 6.38639C4.83884 7.66147 5.09862 9.00804 5.94572 9.9137C6.39751 10.4142 6.29585 10.4857 5.51652 10.1878C5.24545 10.0925 5.00826 10.021 4.98567 10.0567C4.90661 10.1401 5.17768 11.2245 5.39228 11.6535C5.68594 12.2494 6.28456 12.8333 6.93965 13.1789L7.49309 13.4529L6.838 13.4648C6.2055 13.4648 6.18291 13.4768 6.25068 13.727C6.47657 14.5016 7.36885 15.3238 8.36278 15.6813L9.06305 15.9316L8.45314 16.3129C7.54956 16.8611 6.48786 17.1709 5.42616 17.1947C4.9179 17.2067 4.5 17.2543 4.5 17.2901C4.5 17.4092 5.87795 18.0766 6.67987 18.3387C9.08564 19.1133 11.9432 18.7797 14.0892 17.4569C15.614 16.5155 17.1387 14.6446 17.8503 12.8333C18.2343 11.868 18.6183 10.1044 18.6183 9.25829C18.6183 8.71013 18.6522 8.63863 19.2847 7.98322C19.6575 7.60189 20.0076 7.1848 20.0754 7.06564C20.1883 6.83922 20.177 6.83922 19.601 7.04181C18.6409 7.3993 18.5054 7.35164 18.9798 6.81539C19.3299 6.43406 19.7478 5.7429 19.7478 5.54032C19.7478 5.50457 19.5784 5.56415 19.3864 5.6714C19.1831 5.79056 18.7313 5.96931 18.3925 6.07656L17.7825 6.27914L17.2291 5.8859C16.9241 5.6714 16.4949 5.43307 16.2691 5.36157C15.693 5.19473 14.812 5.21857 14.2925 5.40923C12.8807 5.94548 11.9884 7.3278 12.09 8.84121Z" fill="#ECE03D"/>
</svg>
