<svg width="24" height="24" viewBox="0 0 24 24" fill="none" xmlns="http://www.w3.org/2000/svg">
<path fill-rule="evenodd" clip-rule="evenodd" d="M18.5195 6.34482C19.211 6.53456 19.7555 7.09362 19.9403 7.80357C20.2761 9.09028 20.2761 11.775 20.2761 11.775C20.2761 11.775 20.2761 14.4596 19.9403 15.7464C19.7555 16.4564 19.211 17.0154 18.5195 17.2053C17.2664 17.55 12.2413 17.55 12.2413 17.55C12.2413 17.55 7.21621 17.55 5.96306 17.2053C5.27161 17.0154 4.72707 16.4564 4.54227 15.7464C4.20654 14.4596 4.20654 11.775 4.20654 11.775C4.20654 11.775 4.20654 9.09028 4.54227 7.80357C4.72707 7.09362 5.27161 6.53456 5.96306 6.34482C7.21621 6 12.2413 6 12.2413 6C12.2413 6 17.2664 6 18.5195 6.34482ZM10.7348 9.51521V14.5369L14.7522 12.0262L10.7348 9.51521Z" fill="#ECE03D"/>
</svg>
