<svg width="184" height="178" viewBox="0 0 184 178" fill="none" xmlns="http://www.w3.org/2000/svg">
<g clip-path="url(#clip0_434_8593)">
<path d="M55.887 38.0194C55.3259 38.0739 54.8059 38.3282 54.4281 38.7327C54.0504 39.1373 53.8421 39.6632 53.8435 40.2081V81.3327C51.4926 81.8389 49.3898 83.1026 47.8802 84.9162C46.3707 86.7297 45.5443 88.9855 45.5366 91.3129V101.357C45.5429 103.648 46.344 105.87 47.8118 107.669C49.2796 109.467 51.3293 110.738 53.633 111.278L55.0452 117.7V125.668C55.0452 126.247 55.2833 126.802 55.707 127.212C56.1308 127.621 56.7055 127.851 57.3047 127.851H73.1542C73.7535 127.85 74.328 127.62 74.7523 127.211C75.1766 126.802 75.4163 126.247 75.4193 125.668V117.7L76.8259 111.278C79.1311 110.74 81.1825 109.47 82.6516 107.671C84.1206 105.872 84.9222 103.649 84.9278 101.357V91.3129C84.9214 88.9846 84.0956 86.7276 82.586 84.9129C81.0764 83.0982 78.9728 81.8338 76.6209 81.3273V40.2081C76.6195 39.6285 76.3802 39.0732 75.9556 38.6639C75.531 38.2546 74.9558 38.0248 74.356 38.0248H55.887V38.0194ZM58.3846 42.4128H72.1187V81.0865H58.3846V42.4128ZM56.1251 85.4799H74.4002C75.195 85.4728 75.9833 85.6187 76.719 85.9093C77.4547 86.1999 78.1231 86.6294 78.6851 87.1724C79.2471 87.7155 79.6915 88.3614 79.9922 89.0723C80.293 89.7832 80.444 90.5449 80.4367 91.3129V101.357C80.4441 102.124 80.2929 102.885 79.992 103.595C79.691 104.305 79.2464 104.95 78.6842 105.492C78.1219 106.034 77.4534 106.462 76.7178 106.75C75.9821 107.039 75.1942 107.183 74.4002 107.174H56.1251C55.3321 107.183 54.5453 107.038 53.8109 106.749C53.0766 106.459 52.4095 106.031 51.8487 105.489C51.288 104.948 50.8449 104.303 50.5455 103.593C50.2461 102.884 50.0965 102.123 50.1054 101.357V91.3129C50.0958 90.5457 50.2448 89.7843 50.5437 89.0735C50.8426 88.3626 51.2853 87.7166 51.846 87.1733C52.4067 86.6301 53.0741 86.2004 53.8089 85.9096C54.5437 85.6188 55.3311 85.4727 56.1251 85.4799ZM58.3402 111.567H72.1353L71.3102 115.313H59.1654L58.3402 111.567ZM59.5918 119.685H70.8782V123.495H59.5918V119.685Z" fill="black"/>
<path d="M109.389 38.0194C108.828 38.0727 108.307 38.3266 107.929 38.7314C107.551 39.1363 107.343 39.6628 107.346 40.2081V81.3327C104.996 81.8407 102.894 83.1049 101.385 84.9181C99.8757 86.7313 99.0485 88.986 99.0388 91.3129V117.673C99.049 120.378 100.166 122.969 102.145 124.882C104.124 126.795 106.806 127.874 109.605 127.883H127.88C130.68 127.876 133.363 126.798 135.342 124.885C137.321 122.971 138.435 120.379 138.441 117.673V91.3129C138.434 88.9848 137.608 86.7283 136.098 84.9138C134.589 83.0993 132.486 81.8347 130.134 81.3273V40.2081C130.133 39.6285 129.894 39.0732 129.469 38.6639C129.044 38.2546 128.469 38.0248 127.869 38.0248H109.373L109.389 38.0194ZM111.887 42.4128H125.604V81.0865H111.887V42.4128ZM109.605 85.5013H127.88C128.674 85.4941 129.462 85.6402 130.197 85.931C130.931 86.2218 131.599 86.6515 132.159 87.1948C132.72 87.7381 133.163 88.3841 133.462 89.0949C133.761 89.8057 133.91 90.567 133.9 91.3342V117.695C133.912 118.858 133.56 119.999 132.89 120.966C132.22 121.933 131.263 122.682 130.145 123.116V116.367C130.138 115.5 129.779 114.669 129.146 114.054C128.512 113.439 127.654 113.088 126.756 113.077H110.713C109.816 113.089 108.959 113.44 108.327 114.056C107.694 114.671 107.336 115.5 107.329 116.367V123.11C106.212 122.677 105.256 121.929 104.586 120.963C103.916 119.997 103.564 118.858 103.574 117.695V91.3342C103.567 90.5667 103.718 89.8054 104.018 89.0949C104.319 88.3843 104.763 87.7387 105.324 87.1957C105.885 86.6527 106.553 86.2233 107.288 85.9323C108.023 85.6414 108.811 85.4949 109.605 85.5013ZM111.865 117.47H125.582V123.495H111.865V117.47Z" fill="black"/>
<path d="M56.1142 81.0919C53.3136 81.1018 50.6309 82.1823 48.6521 84.0974C46.6733 86.0126 45.5593 88.6067 45.5535 91.3129V101.363C45.5608 104.067 46.6757 106.658 48.6546 108.571C50.6336 110.483 53.3155 111.56 56.1142 111.567H74.3894C77.188 111.56 79.87 110.483 81.8489 108.571C83.8279 106.658 84.9429 104.067 84.9502 101.363V91.3129C84.9444 88.6067 83.8304 86.0126 81.8516 84.0974C79.8728 82.1823 77.19 81.1018 74.3894 81.0919H56.1142ZM56.1142 85.4799H74.3894C75.1839 85.4735 75.9719 85.6201 76.7073 85.9109C77.4427 86.2018 78.1107 86.6311 78.6726 87.174C79.2345 87.717 79.6787 88.3625 79.9797 89.0731C80.2808 89.7837 80.4324 90.5451 80.4258 91.3129V101.363C80.4317 102.129 80.2795 102.89 79.978 103.599C79.6765 104.308 79.2318 104.953 78.6699 105.494C78.108 106.036 77.4401 106.464 76.7051 106.753C75.9702 107.042 75.1829 107.187 74.3894 107.179H56.1142C55.3217 107.187 54.5355 107.042 53.8018 106.753C53.0681 106.463 52.4015 106.035 51.8414 105.493C51.2812 104.951 50.8387 104.307 50.5396 103.597C50.2406 102.888 50.0912 102.128 50.1001 101.363V91.3129C50.0912 90.5464 50.2405 89.7857 50.5394 89.0756C50.8382 88.3655 51.2805 87.72 51.8404 87.1769C52.4004 86.6338 53.0668 86.204 53.8006 85.9126C54.5344 85.6213 55.3209 85.4742 56.1142 85.4799Z" fill="black"/>
<path d="M55.8872 54.999C55.3267 55.0523 54.8068 55.3054 54.4289 55.7091C54.0511 56.1128 53.8425 56.638 53.8438 57.1823V68.0882C53.8423 68.3768 53.8998 68.6628 54.0129 68.9299C54.126 69.1969 54.2925 69.44 54.5029 69.6448C54.7133 69.8496 54.9634 70.0122 55.2389 70.1234C55.5145 70.2347 55.8101 70.2923 56.1087 70.293H74.3839C74.6825 70.2923 74.9781 70.2347 75.2536 70.1234C75.5292 70.0122 75.7794 69.8496 75.9898 69.6448C76.2002 69.44 76.3667 69.1969 76.4798 68.9299C76.5929 68.6628 76.6504 68.3768 76.6489 68.0882V57.1823C76.6475 56.6028 76.4082 56.0474 75.9836 55.6381C75.559 55.2288 74.9836 54.999 74.3839 54.999H55.8872ZM58.3849 59.371H72.1189V65.8996H58.3849V59.371Z" fill="black"/>
<path d="M110.746 89.3381C109.85 89.3478 108.994 89.6949 108.359 90.3056C107.723 90.9162 107.36 91.7422 107.346 92.6078V98.2267C107.359 99.0942 107.721 99.9227 108.356 100.536C108.991 101.15 109.848 101.5 110.746 101.512H126.773C127.669 101.498 128.523 101.147 129.155 100.534C129.787 99.92 130.147 99.0923 130.157 98.2267V92.6078C130.148 91.7433 129.789 90.9164 129.156 90.305C128.523 89.6937 127.668 89.3465 126.773 89.3381H110.746ZM111.887 93.7263H125.604V97.1243H111.887V93.7263Z" fill="black"/>
<path d="M57.2384 89.1724C56.3416 89.182 55.4843 89.5298 54.8491 90.1416C54.2138 90.7534 53.8511 91.5807 53.8381 92.4473V98.0768C53.8511 98.9434 54.2138 99.7707 54.8491 100.382C55.4843 100.994 56.3416 101.342 57.2384 101.352H73.2541C74.1519 101.344 75.0107 100.996 75.6471 100.384C76.2835 99.7725 76.6469 98.9443 76.6599 98.0768V92.458C76.6469 91.5905 76.2835 90.7623 75.6471 90.1504C75.0107 89.5384 74.1519 89.1912 73.2541 89.1829L57.2384 89.1724ZM58.3792 93.5657H72.1133V96.9584H58.3792V93.5657Z" fill="black"/>
</g>
<defs>
<clipPath id="clip0_434_8593">
<rect width="92.8932" height="89.8641" fill="white" transform="translate(45.5535 38.0194)"/>
</clipPath>
</defs>
</svg>
