<svg width="184" height="178" viewBox="0 0 184 178" fill="none" xmlns="http://www.w3.org/2000/svg">
<g clip-path="url(#clip0_434_8625)">
<path d="M137.816 90.7356H50.1704V95.7014H137.816V90.7356Z" fill="black"/>
<path d="M137.816 110.592H50.1704V115.558H137.816V110.592Z" fill="black"/>
<path d="M160.005 100.442H157.027L151.725 52.4055C151.663 51.7528 151.343 51.1474 150.83 50.7141C150.317 50.2807 149.65 50.0524 148.967 50.076H63.4038V44.4698H68.3006V39.1771H41.9543V44.4698H46.8441V50.076H38.5642C38.0696 50.0726 37.5833 50.1973 37.1567 50.4372C36.73 50.677 36.379 51.0229 36.1406 51.4383L32.4947 58.1071H27.5196C27.1567 58.1044 26.7969 58.1708 26.461 58.3027C26.1252 58.4345 25.8201 58.6291 25.5634 58.8751C25.3068 59.1211 25.1038 59.4135 24.9662 59.7354C24.8286 60.0573 24.7592 60.4022 24.762 60.75V71.3288C24.7592 71.6766 24.8286 72.0215 24.9662 72.3434C25.1038 72.6653 25.3068 72.9577 25.5634 73.2037C25.8201 73.4497 26.1252 73.6442 26.461 73.7761C26.7969 73.908 27.1567 73.9744 27.5196 73.9717H31.6063L35.7995 124.44C35.8565 125.104 36.1716 125.723 36.6824 126.175C37.1931 126.627 37.8622 126.878 38.5571 126.879H148.974C149.526 126.876 150.065 126.712 150.518 126.409C150.971 126.106 151.317 125.679 151.511 125.183L155.264 116.294H160.012C160.375 116.297 160.736 116.231 161.072 116.1C161.409 115.969 161.715 115.774 161.972 115.528C162.23 115.282 162.433 114.989 162.571 114.667C162.71 114.344 162.779 113.999 162.776 113.65V103.072C162.777 102.724 162.706 102.379 162.567 102.058C162.427 101.737 162.223 101.445 161.965 101.201C161.707 100.956 161.401 100.763 161.064 100.633C160.728 100.503 160.367 100.438 160.005 100.442ZM52.3663 44.3677H57.8886V49.9737H52.3663V44.3677ZM157.247 111.028H153.381C152.829 111.03 152.291 111.192 151.838 111.494C151.385 111.796 151.038 112.222 150.843 112.717L147.091 121.573H41.1085L36.9082 71.1039C36.8528 70.4396 36.5382 69.8197 36.0272 69.3677C35.5161 68.9158 34.846 68.665 34.1506 68.6654H30.2843V63.3794H34.1506C34.6461 63.3826 35.1334 63.2576 35.5611 63.0179C35.9888 62.7782 36.3412 62.4325 36.5813 62.0171L40.2202 55.3483H146.423L151.725 103.385C151.788 104.039 152.109 104.644 152.623 105.077C153.138 105.51 153.805 105.738 154.489 105.715H157.247V111.028Z" fill="black"/>
<path d="M137.816 80.804H50.1704V85.7698H137.816V80.804Z" fill="black"/>
<path d="M137.816 60.9476H50.1704V65.9134H137.816V60.9476Z" fill="black"/>
<path d="M137.816 100.667H50.1704V105.633H137.816V100.667Z" fill="black"/>
<path d="M137.816 70.8792H50.1704V75.845H137.816V70.8792Z" fill="black"/>
</g>
<defs>
<clipPath id="clip0_434_8625">
<rect width="138" height="87.7225" fill="white" transform="translate(24.7693 39.177)"/>
</clipPath>
</defs>
</svg>
