<svg width="184" height="178" viewBox="0 0 184 178" fill="none" xmlns="http://www.w3.org/2000/svg">
<g clip-path="url(#clip0_434_8523)">
<path d="M109.498 68.5182C109.609 68.5145 109.719 68.5422 109.815 68.598C109.91 68.6539 109.989 68.7356 110.04 68.8339L110.225 69.1634L110.459 69.4655L116.633 77.5796L118.28 79.7489H121.957C122.121 79.7524 122.277 79.8196 122.392 79.9361C122.507 80.0527 122.573 80.2096 122.575 80.3736V86.7577H135.184V80.3736C135.186 80.2084 135.253 80.0506 135.369 79.9338C135.486 79.817 135.644 79.7506 135.809 79.7489H140.735L145.455 87.046C145.491 87.1003 145.517 87.1608 145.53 87.2245C145.536 87.2747 145.536 87.3254 145.53 87.3755V104.599C145.534 104.638 145.534 104.677 145.53 104.716V104.798L145.482 104.894L145.366 105.1L145.263 105.313L142.258 111.677L142.224 111.752L142.182 111.841V111.889C142.131 111.991 142.052 112.076 141.955 112.135C141.858 112.194 141.747 112.226 141.633 112.226H135.816C135.651 112.224 135.493 112.158 135.376 112.041C135.259 111.924 135.193 111.766 135.191 111.601V105.217H122.568V118.651C122.564 118.816 122.497 118.973 122.381 119.089C122.265 119.205 122.108 119.272 121.943 119.276H81.8839C81.7689 119.279 81.6555 119.248 81.557 119.189C81.4586 119.129 81.3792 119.043 81.3282 118.939L81.1018 118.473L80.7862 118.061L75.2977 110.867L73.6512 108.697H59.7995C59.6339 108.697 59.4751 108.632 59.358 108.514C59.2409 108.397 59.1751 108.238 59.1751 108.073V76.1037C59.1751 76.0217 59.1913 75.9404 59.2227 75.8647C59.254 75.7889 59.3 75.72 59.358 75.6619C59.416 75.6039 59.4848 75.5579 59.5606 75.5265C59.6363 75.4951 59.7175 75.479 59.7995 75.479H70.9618V69.1154C70.9653 68.9508 71.0322 68.794 71.1485 68.6776C71.2648 68.5612 71.4216 68.4942 71.5861 68.4907H109.498M109.498 62.9989H71.593C69.9723 63.0007 68.4185 63.6458 67.2725 64.7925C66.1265 65.9391 65.4819 67.4938 65.4801 69.1154V69.9666H59.8063C58.1851 69.9666 56.6303 70.6111 55.4839 71.7581C54.3375 72.9052 53.6935 74.4609 53.6935 76.0831V108.052C53.6953 109.674 54.3399 111.228 55.4859 112.375C56.6319 113.522 58.1857 114.167 59.8063 114.169H70.9069L76.3954 121.363C76.9011 122.385 77.6838 123.245 78.6543 123.843C79.6249 124.441 80.744 124.755 81.8839 124.747H121.978C123.598 124.745 125.152 124.1 126.298 122.954C127.444 121.807 128.089 120.252 128.091 118.631V110.716H129.71V111.608C129.711 113.23 130.356 114.784 131.502 115.931C132.648 117.078 134.202 117.723 135.822 117.724H141.64C142.756 117.724 143.85 117.418 144.804 116.839C145.759 116.261 146.536 115.432 147.053 114.443C147.122 114.306 147.191 114.162 147.252 114.018L150.23 107.661C150.408 107.354 150.56 107.032 150.683 106.7L150.758 106.535C150.953 106.104 151.046 105.635 151.033 105.162C151.033 104.984 151.033 104.798 151.033 104.613V87.3755C151.035 86.1984 150.694 85.0462 150.052 84.0599L147.307 78.2318C146.872 77.0635 146.09 76.0565 145.066 75.346C144.041 74.6355 142.825 74.2555 141.579 74.2571H135.768C134.147 74.2589 132.593 74.9039 131.447 76.0506C130.301 77.1973 129.657 78.7519 129.655 80.3736V81.2659H128.029V80.3736C128.027 78.7531 127.383 77.1994 126.239 76.0529C125.094 74.9065 123.542 74.2607 121.923 74.2571H120.99L114.815 66.143C114.288 65.1941 113.516 64.4042 112.579 63.8559C111.643 63.3077 110.576 63.0212 109.491 63.0264L109.498 62.9989Z" fill="black"/>
<path d="M109.642 57.5484H70.8314C70.1036 57.5484 69.4056 57.259 68.8909 56.7441C68.3763 56.2291 68.0872 55.5307 68.0872 54.8025V45.5008C68.0872 44.7725 68.3763 44.0741 68.8909 43.5592C69.4056 43.0442 70.1036 42.7549 70.8314 42.7549H109.642C110.37 42.7549 111.068 43.0442 111.583 43.5592C112.097 44.0741 112.386 44.7725 112.386 45.5008V54.8025C112.386 55.1631 112.315 55.5202 112.178 55.8533C112.04 56.1865 111.838 56.4891 111.583 56.7441C111.328 56.9991 111.025 57.2013 110.692 57.3393C110.359 57.4773 110.003 57.5484 109.642 57.5484ZM73.5757 52.0566H106.898V48.2467H73.5757V52.0566Z" fill="black"/>
<path d="M45.0147 113.249H35.7253C34.9975 113.249 34.2995 112.959 33.7849 112.444C33.2702 111.929 32.9811 111.231 32.9811 110.503V73.5295C32.9811 72.8012 33.2702 72.1027 33.7849 71.5878C34.2995 71.0728 34.9975 70.7836 35.7253 70.7836H45.0147C45.7425 70.7836 46.4405 71.0728 46.9552 71.5878C47.4698 72.1027 47.759 72.8012 47.759 73.5295V110.503C47.759 111.231 47.4698 111.929 46.9552 112.444C46.4405 112.959 45.7425 113.249 45.0147 113.249ZM38.4696 107.757H42.2704V76.2754H38.4696V107.757Z" fill="black"/>
</g>
<defs>
<clipPath id="clip0_434_8523">
<rect width="118.038" height="82.0196" fill="white" transform="translate(32.9811 42.7549)"/>
</clipPath>
</defs>
</svg>
