<svg width="184" height="178" viewBox="0 0 184 178" fill="none" xmlns="http://www.w3.org/2000/svg">
<g clip-path="url(#clip0_434_8554)">
<path d="M102.668 68.3702H80.9192C78.0476 68.3816 75.297 69.4859 73.2658 71.4427C71.2347 73.3995 70.0876 76.0503 70.074 78.8184V116.807H74.7358V78.8184C74.7298 78.034 74.8856 77.2563 75.1942 76.5305C75.5028 75.8047 75.9581 75.1454 76.5335 74.5908C77.1089 74.0361 77.7929 73.5972 78.5458 73.2997C79.2987 73.0022 80.1055 72.8521 80.9192 72.8579H102.668C103.482 72.8496 104.289 72.9978 105.043 73.294C105.797 73.5902 106.482 74.0284 107.057 74.5829C107.633 75.1374 108.089 75.797 108.397 76.5232C108.705 77.2495 108.859 78.0276 108.852 78.8122V116.801H113.494V78.8184C113.489 76.051 112.347 73.3983 110.318 71.4403C108.29 69.4823 105.539 68.3784 102.668 68.3702Z" fill="black"/>
<path d="M113.739 117.037H108.581V78.8184C108.589 78.0646 108.442 77.3168 108.146 76.6189C107.851 75.9209 107.414 75.287 106.86 74.7542C106.307 74.2215 105.649 73.8008 104.924 73.5168C104.2 73.2327 103.424 73.0911 102.642 73.1002H80.6871C79.1449 73.1425 77.6811 73.7654 76.6096 74.8354C75.5381 75.9055 74.9441 77.3375 74.9548 78.8246V117.043H69.7965V78.8184C69.8101 75.9877 70.9832 73.2767 73.0603 71.2757C75.1374 69.2746 77.9504 68.1455 80.887 68.1341H102.636C105.573 68.139 108.387 69.2667 110.463 71.2697C112.538 73.2727 113.705 75.9874 113.707 78.8184L113.739 117.037ZM109.09 116.571H113.236V78.8184C113.234 76.111 112.119 73.5149 110.134 71.5993C108.149 69.6838 105.457 68.6052 102.649 68.6003H80.8999C78.09 68.6101 75.398 69.6904 73.411 71.6057C71.4241 73.521 70.3032 76.116 70.293 78.8246V116.571H74.4777V78.8184C74.4682 77.9996 74.6285 77.1873 74.9492 76.429C75.2698 75.6708 75.7445 74.9821 76.3452 74.4031C76.9458 73.8241 77.6604 73.3665 78.447 73.0574C79.2336 72.7483 80.0762 72.5938 80.9256 72.603H102.674C103.522 72.5905 104.364 72.7417 105.15 73.0477C105.936 73.3537 106.65 73.8082 107.251 74.3846C107.852 74.961 108.327 75.6474 108.649 76.4036C108.97 77.1597 109.131 77.9702 109.122 78.7873L109.09 116.571Z" fill="black"/>
<path d="M70.5059 53.6894H69.3517C67.9546 53.6874 66.5721 53.9623 65.2899 54.4969C64.0077 55.0315 62.8531 55.8144 61.8979 56.7971C60.0641 58.7446 58.8939 61.1872 58.545 63.7957L53.2771 111.182H57.997L63.1553 64.4235C63.3841 62.7374 64.1293 61.1554 65.2959 59.88C65.8023 59.3278 66.4275 58.8888 67.128 58.5936C67.8284 58.2984 68.5873 58.1541 69.3517 58.1707H113.442C114.205 58.1534 114.962 58.2974 115.661 58.5927C116.359 58.888 116.982 59.3275 117.485 59.88C118.656 61.1825 119.408 62.7846 119.652 64.4918L125.455 111.201H130.181L124.275 63.7771C123.881 61.1912 122.706 58.7744 120.896 56.8282C119.943 55.8448 118.79 55.0613 117.508 54.5266C116.227 53.9919 114.845 53.7175 113.449 53.7204H113.088M108.426 53.7204H75.1935Z" fill="black"/>
<path d="M130.452 111.443H125.236V111.238L119.433 64.5291C119.192 62.8737 118.463 61.3201 117.331 60.054C116.85 59.5243 116.254 59.1028 115.585 58.8193C114.917 58.5357 114.192 58.3972 113.462 58.4132H69.3711C68.6416 58.3977 67.9175 58.5358 67.2492 58.8182C66.581 59.1005 65.9848 59.5202 65.5023 60.0478C64.3663 61.2869 63.643 62.8266 63.4261 64.467L58.2678 111.437H53.0579V111.182L58.3194 63.7957C58.669 61.128 59.8647 58.6295 61.7432 56.6417C62.7177 55.6314 63.8983 54.8261 65.2109 54.2763C66.5236 53.7266 67.9399 53.4442 69.3711 53.447H70.5253V53.9131H69.3711C68.0055 53.9099 66.654 54.1788 65.4013 54.7029C64.1486 55.227 63.0216 55.995 62.0914 56.9587C60.2924 58.8749 59.145 61.276 58.803 63.8393L53.5673 110.971H57.7842L62.9425 64.4235C63.1676 62.6813 63.934 61.0454 65.1412 59.7308C65.6196 59.2062 66.2022 58.7792 66.8544 58.475C67.5067 58.1707 68.2155 57.9953 68.9391 57.9593H113.481C114.278 57.9417 115.069 58.093 115.799 58.4023C116.529 58.7116 117.179 59.1714 117.704 59.7495C118.906 61.0826 119.679 62.724 119.929 64.4733L125.732 110.99H129.968L124.094 63.833C123.712 61.2892 122.559 58.9108 120.78 56.9961C119.849 56.0341 118.723 55.2663 117.472 54.7404C116.221 54.2144 114.872 53.9413 113.507 53.938H113.146V53.4719H113.507C114.938 53.4755 116.354 53.762 117.666 54.3136C118.978 54.8652 120.158 55.6703 121.135 56.6791C122.977 58.6599 124.172 61.1201 124.572 63.7522L130.452 111.443ZM108.42 53.9194H75.1935V53.4532H108.445L108.42 53.9194Z" fill="black"/>
<path d="M131.135 136.498H52.8645C50.5747 136.494 48.3795 135.616 46.7609 134.054C45.1423 132.493 44.2324 130.376 44.2307 128.169V118.541C44.2334 117.29 44.5293 116.054 45.0962 114.928C45.6631 113.802 46.4865 112.814 47.5049 112.037C48.5233 111.26 49.7104 110.715 50.9779 110.442C52.2453 110.169 53.5601 110.176 54.8246 110.461C67.2252 113.296 79.9168 114.781 92.6609 114.887C104.939 114.809 117.165 113.349 129.092 110.536C130.362 110.238 131.685 110.221 132.963 110.488C134.24 110.754 135.438 111.297 136.467 112.075C137.495 112.854 138.326 113.847 138.898 114.98C139.471 116.113 139.768 117.356 139.769 118.616V128.15C139.771 129.245 139.549 130.329 139.116 131.341C138.683 132.353 138.047 133.273 137.246 134.048C136.444 134.823 135.492 135.438 134.443 135.859C133.395 136.279 132.271 136.496 131.135 136.498ZM52.8516 115.185C51.931 115.188 51.0493 115.544 50.4001 116.173C49.751 116.802 49.3873 117.654 49.389 118.541V128.169C49.389 129.058 49.755 129.911 50.4066 130.54C51.0582 131.169 51.9422 131.524 52.8645 131.525H131.135C132.058 131.524 132.942 131.169 133.593 130.54C134.245 129.911 134.611 129.058 134.611 128.169V118.635C134.612 118.126 134.494 117.624 134.264 117.167C134.034 116.709 133.699 116.309 133.285 115.995C132.87 115.681 132.387 115.462 131.871 115.355C131.356 115.248 130.822 115.256 130.31 115.378C117.983 118.27 105.348 119.765 92.6609 119.834C79.5191 119.73 66.4313 118.199 53.6447 115.272C53.3853 115.207 53.1194 115.17 52.8516 115.16V115.185Z" fill="black"/>
<path d="M103.332 49.5623H80.1196C77.6029 49.5607 75.1898 48.5962 73.4102 46.8808C71.6306 45.1653 70.63 42.8392 70.6283 40.4132V38.822C70.63 36.3955 71.6303 34.0687 73.4097 32.3523C75.1891 30.6358 77.6023 29.67 80.1196 29.6667H103.332C105.85 29.67 108.264 30.6356 110.044 32.3519C111.825 34.0681 112.826 36.3949 112.83 38.822V40.4132C112.826 42.8398 111.825 45.1659 110.044 46.8812C108.263 48.5964 105.849 49.5607 103.332 49.5623ZM80.1196 34.6453C78.9698 34.6469 77.8678 35.0884 77.0554 35.8726C76.243 36.6569 75.7866 37.7199 75.7866 38.8282V40.4194C75.7883 41.5267 76.2454 42.5881 77.0576 43.371C77.8698 44.154 78.9709 44.5946 80.1196 44.5962H103.332C104.481 44.5946 105.583 44.1542 106.396 43.3714C107.21 42.5886 107.668 41.5273 107.672 40.4194V38.8282C107.67 37.7194 107.212 36.6564 106.399 35.8723C105.585 35.0882 104.482 34.6469 103.332 34.6453H80.1196Z" fill="black"/>
</g>
<defs>
<clipPath id="clip0_434_8554">
<rect width="95.5385" height="106.8" fill="white" transform="translate(44.2307 29.6667)"/>
</clipPath>
</defs>
</svg>
