<svg width="184" height="178" viewBox="0 0 184 178" fill="none" xmlns="http://www.w3.org/2000/svg">
<g clip-path="url(#clip0_434_8661)">
<path d="M95.7311 85.775C95.2567 85.7839 94.7947 85.9269 94.3998 86.1872C94.0048 86.4475 93.6934 86.8142 93.5023 87.244C93.3113 87.6737 93.2487 88.1485 93.3216 88.6124C93.3946 89.0763 93.6001 89.51 93.9141 89.862C96.4642 92.8137 97.2612 94.8193 97.344 96.169C97.4269 97.5187 96.9488 98.5467 95.8969 99.9532C93.7867 102.823 89.1965 106.557 88.9415 113.11V113.204C88.9415 116.068 90.3314 118.426 91.5618 120.211C92.3069 121.283 93.1361 122.295 94.0416 123.239C94.3841 123.596 94.827 123.843 95.3132 123.949C95.7994 124.054 96.3065 124.013 96.7686 123.83C97.2308 123.648 97.6268 123.332 97.9056 122.924C98.1843 122.516 98.3329 122.035 98.3321 121.542C98.3242 120.884 98.0566 120.255 97.5862 119.789C96.8853 119.062 96.2457 118.279 95.6737 117.449C94.7238 116.074 93.9524 114.295 93.9333 113.261C94.1245 108.941 97.2036 106.544 99.9131 102.854C101.277 101.006 102.463 98.6413 102.297 95.8095C102.132 92.9776 100.633 90.0511 97.6882 86.6453C97.4499 86.3618 97.1505 86.1346 96.8117 85.9807C96.473 85.8268 96.1038 85.7501 95.7311 85.7561V85.775ZM110.445 85.775C109.972 85.7874 109.513 85.9329 109.12 86.1946C108.728 86.4563 108.42 86.8232 108.231 87.2523C108.042 87.6814 107.981 88.1548 108.055 88.617C108.129 89.0793 108.334 89.5112 108.647 89.862C111.197 92.8137 111.975 94.8193 112.064 96.169C112.153 97.5187 111.662 98.5467 110.611 99.9532C108.5 102.823 103.917 106.538 103.655 113.091V113.204C103.655 116.068 105.051 118.426 106.282 120.211C107.024 121.284 107.851 122.296 108.755 123.239C108.984 123.473 109.256 123.659 109.558 123.788C109.859 123.917 110.184 123.986 110.512 123.99C110.841 123.994 111.167 123.934 111.472 123.813C111.776 123.692 112.054 123.512 112.288 123.284C112.522 123.056 112.708 122.784 112.836 122.485C112.963 122.185 113.029 121.864 113.031 121.539C113.032 121.214 112.968 120.892 112.842 120.591C112.717 120.291 112.533 120.018 112.3 119.789C111.6 119.061 110.96 118.279 110.387 117.449C109.431 116.068 108.66 114.295 108.641 113.255C108.832 108.941 111.911 106.544 114.62 102.854C115.985 101 117.215 98.6413 117.024 95.8095C116.833 92.9776 115.36 90.0448 112.421 86.639C112.18 86.3521 111.877 86.1235 111.533 85.9704C111.19 85.8174 110.815 85.7441 110.438 85.7561L110.445 85.775ZM81.0173 85.8127C80.5441 85.8227 80.0836 85.966 79.6898 86.226C79.2961 86.486 78.9855 86.8519 78.7947 87.2805C78.6038 87.7091 78.5407 88.1825 78.6126 88.6454C78.6844 89.1082 78.8884 89.5412 79.2004 89.8934C81.7505 92.8451 82.541 94.8381 82.6302 96.2004C82.7195 97.5627 82.2158 98.5908 81.1639 100.029C79.0474 102.899 74.4828 106.62 74.2214 113.173V113.267C74.2214 116.131 75.6303 118.509 76.8607 120.293C77.6036 121.367 78.4329 122.379 79.3407 123.321C79.5611 123.58 79.8336 123.791 80.1409 123.941C80.4482 124.091 80.7836 124.176 81.1258 124.191C81.468 124.205 81.8096 124.15 82.1289 124.027C82.4483 123.905 82.7384 123.718 82.9809 123.478C83.2268 123.242 83.4197 122.957 83.5471 122.642C83.6745 122.326 83.7335 121.988 83.7204 121.649C83.7083 121.311 83.6264 120.978 83.4794 120.672C83.3325 120.367 83.1237 120.094 82.866 119.871C82.1678 119.135 81.5284 118.346 80.9535 117.512C80.0036 116.131 79.2323 114.358 79.2132 113.318C79.4108 109.01 82.4964 106.607 85.2058 102.917C86.5701 101.07 87.7559 98.7232 87.5965 95.8914C87.4371 93.0595 85.9326 90.1269 82.9873 86.7274C82.7512 86.4413 82.4521 86.2125 82.1129 86.0583C81.7737 85.9042 81.4033 85.8288 81.0301 85.838L81.0173 85.8127Z" fill="black"/>
<path d="M132.496 116.497H120.065V110.82H129.628V56.0373H59.699V110.82H69.2617V116.497H56.8302C56.4533 116.497 56.0798 116.425 55.7314 116.282C55.383 116.14 55.0664 115.931 54.7998 115.667C54.5332 115.403 54.322 115.09 54.1781 114.745C54.0342 114.401 53.9606 114.031 53.9614 113.658V53.1991C53.9614 52.4464 54.2637 51.7245 54.8017 51.1923C55.3397 50.66 56.0694 50.3609 56.8302 50.3609H132.496C133.257 50.3609 133.987 50.66 134.525 51.1923C135.063 51.7245 135.365 52.4464 135.365 53.1991V113.658C135.366 114.031 135.292 114.401 135.148 114.745C135.005 115.09 134.793 115.403 134.527 115.667C134.26 115.931 133.944 116.14 133.595 116.282C133.247 116.425 132.873 116.497 132.496 116.497Z" fill="black"/>
</g>
<defs>
<clipPath id="clip0_434_8661">
<rect width="81.3846" height="73.8049" fill="white" transform="translate(53.9614 50.361)"/>
</clipPath>
</defs>
</svg>
