<svg width="184" height="178" viewBox="0 0 184 178" fill="none" xmlns="http://www.w3.org/2000/svg">
<g clip-path="url(#clip0_434_8579)">
<path d="M121.324 56.3377L126.856 111.651H64.3709L69.7933 56.3377H121.324ZM125.394 51.9769H65.717L59.4358 116.012H131.784L125.375 51.9769H125.394Z" fill="black"/>
<path d="M119.28 46.9869C119.54 46.9869 119.79 47.0871 119.975 47.2657C120.16 47.4443 120.265 47.6867 120.267 47.9401C120.267 48.102 120.267 48.2578 120.267 48.4135L127.317 120.516C127.284 120.744 127.168 120.953 126.989 121.105C126.809 121.256 126.58 121.339 126.343 121.338H64.8132C64.5756 121.34 64.3454 121.258 64.1659 121.106C63.9865 120.955 63.8702 120.745 63.839 120.516L70.8508 48.4135C70.8606 48.2559 70.8606 48.0978 70.8508 47.9401C70.8525 47.6867 70.9572 47.4443 71.1421 47.2657C71.327 47.0871 71.5771 46.9869 71.8378 46.9869H119.267M119.267 42.0032H71.8378C70.2172 42.0032 68.663 42.6285 67.5165 43.7417C66.37 44.8549 65.7251 46.3649 65.7234 47.9401L58.6731 120.379C58.6731 121.955 59.3173 123.467 60.464 124.581C61.6107 125.696 63.1659 126.322 64.7875 126.322H126.317C127.939 126.322 129.494 125.696 130.641 124.581C131.787 123.467 132.432 121.955 132.432 120.379L125.381 47.9401C125.38 46.3649 124.735 44.8549 123.588 43.7417C122.442 42.6285 120.887 42.0032 119.267 42.0032Z" fill="black"/>
<path d="M113.005 45.6538H107.878V38.6828H83.2337V45.6538H78.1062V33.699H113.005V45.6538Z" fill="black"/>
<path d="M115.953 135.66H75.158V123.394H80.9264V130.053H110.185V123.394H115.953V135.66Z" fill="black"/>
<path d="M97.9174 55.2787H93.4309V112.542H97.9174V55.2787Z" fill="black"/>
<path d="M83.2085 55.0817L80.6467 112.341L85.129 112.53L87.6908 55.2712L83.2085 55.0817Z" fill="black"/>
<path d="M74.3605 55.1526L69.2273 112.411L73.6969 112.789L78.8301 55.5312L74.3605 55.1526Z" fill="black"/>
<path d="M107.952 55.2175L103.472 55.4541L106.673 112.714L111.153 112.477L107.952 55.2175Z" fill="black"/>
<path d="M116.886 55.1574L112.417 55.5352L117.54 112.794L122.009 112.416L116.886 55.1574Z" fill="black"/>
</g>
<defs>
<clipPath id="clip0_434_8579">
<rect width="73.7778" height="101.961" fill="white" transform="translate(58.6667 33.699)"/>
</clipPath>
</defs>
</svg>
