<svg width="184" height="178" viewBox="0 0 184 178" fill="none" xmlns="http://www.w3.org/2000/svg">
<g clip-path="url(#clip0_434_8565)">
<path fill-rule="evenodd" clip-rule="evenodd" d="M131.423 65.5526C131.423 64.7054 131.077 63.893 130.461 63.294C129.845 62.695 129.009 62.3584 128.138 62.3584H114.998C114.127 62.3584 113.291 62.695 112.675 63.294C112.059 63.893 111.713 64.7054 111.713 65.5526V123.055C111.712 123.475 111.797 123.891 111.961 124.279C112.126 124.668 112.368 125.021 112.673 125.318C112.978 125.615 113.341 125.851 113.74 126.012C114.139 126.173 114.566 126.256 114.998 126.256H128.138C128.57 126.256 128.998 126.173 129.397 126.012C129.796 125.851 130.158 125.615 130.463 125.318C130.769 125.021 131.01 124.668 131.175 124.279C131.34 123.891 131.424 123.475 131.423 123.055V65.5526ZM137.993 65.5526V123.055C137.991 125.597 136.953 128.034 135.105 129.831C133.258 131.629 130.752 132.641 128.138 132.644H114.998C112.384 132.641 109.878 131.629 108.029 129.832C106.18 128.034 105.14 125.597 105.137 123.055V97.5013H79.2604L53.3707 103.797L51.7692 97.5945L78.8566 91.1129H105.137V65.5526C105.142 63.0116 106.183 60.5763 108.031 58.7802C109.88 56.9841 112.385 55.9735 114.998 55.97H128.138C130.751 55.9736 133.255 56.9843 135.103 58.7806C136.95 60.5769 137.99 63.0122 137.993 65.5526ZM72.2935 110.278C72.2917 111.126 71.9441 111.938 71.327 112.537C70.7098 113.136 69.8736 113.472 69.0017 113.472H62.4317C61.5611 113.471 60.7266 113.133 60.1109 112.535C59.4952 111.936 59.1486 111.125 59.1468 110.278V107.084H52.5768V110.278C52.5804 112.819 53.6198 115.254 55.4672 117.05C57.3146 118.847 59.8191 119.857 62.4317 119.861H69.0017C71.6155 119.859 74.1218 118.849 75.9706 117.053C77.8195 115.256 78.8599 112.82 78.8635 110.278V103.89H72.2935V110.278ZM85.4334 43.1865H69.0085V36.7981H62.4386V43.1865H46.0137V49.5749H85.4403L85.4334 43.1865ZM53.3775 91.0131L79.6573 84.6247L78.0628 78.4293L51.7761 84.8177L53.3775 91.0131ZM78.0628 65.6458L51.7761 72.0342L53.3775 78.2363L79.6573 71.8479L78.0628 65.6458ZM79.6573 59.0644L53.3775 65.4528L51.7761 59.2574L78.0628 52.869L79.6573 59.0644Z" fill="black"/>
</g>
<defs>
<clipPath id="clip0_434_8565">
<rect width="92" height="95.8462" fill="white" transform="translate(46 36.7981)"/>
</clipPath>
</defs>
</svg>
