<svg width="184" height="178" viewBox="0 0 184 178" fill="none" xmlns="http://www.w3.org/2000/svg">
<g clip-path="url(#clip0_434_8604)">
<path d="M100.456 45.6166V37.8728C100.456 37.0955 100.137 36.3498 99.5697 35.7995C99.0021 35.2491 98.2322 34.9391 97.4286 34.9372C82.8426 34.9744 68.865 40.5967 58.5518 50.5749C48.2385 60.5532 42.4286 74.0757 42.3921 88.1861C42.3921 88.9628 42.7111 89.7077 43.2788 90.2569C43.8465 90.8061 44.6165 91.1146 45.4194 91.1146H53.4242C53.9955 99.2926 56.9888 107.138 62.0464 113.715C67.1041 120.291 74.0121 125.319 81.945 128.198C89.8778 131.078 98.5 131.687 106.781 129.952C115.062 128.218 122.652 124.214 128.643 118.418C134.634 112.622 138.774 105.28 140.566 97.2687C142.359 89.2577 141.73 80.9167 138.753 73.2425C135.777 65.5683 130.579 58.8855 123.781 53.9928C116.983 49.1001 108.873 46.2044 100.42 45.6517L100.456 45.6166ZM94.4014 40.8647V56.2255C86.6676 56.9231 79.4288 60.2124 73.9358 65.5249C68.4428 70.8375 65.0409 77.8395 64.3179 85.3209H48.5485C49.2827 73.7807 54.3456 62.8966 62.7867 54.7113C71.2277 46.526 82.4667 41.6025 94.3941 40.8647H94.4014ZM97.4286 125.025C87.8582 125.003 78.6464 121.5 71.6226 115.212C64.5987 108.923 60.2768 100.308 59.5151 91.0795H67.2433C68.0469 91.0795 68.8176 90.7711 69.3865 90.2221C69.9554 89.6731 70.276 88.9282 70.2779 88.1509C70.299 81.1905 73.166 74.5209 78.253 69.5985C83.34 64.6761 90.2336 61.9007 97.4286 61.8785C97.8262 61.8785 98.2198 61.8027 98.5871 61.6555C98.9544 61.5084 99.2881 61.2926 99.5692 61.0207C99.8503 60.7487 100.073 60.4259 100.226 60.0706C100.378 59.7153 100.456 59.3345 100.456 58.9499V51.4736C110.27 52.2178 119.405 56.6105 125.944 63.7301C132.483 70.8497 135.916 80.1425 135.525 89.6585C135.133 99.1745 130.946 108.174 123.843 114.768C116.74 121.362 107.273 125.038 97.4286 125.025Z" fill="black"/>
<path d="M97.4285 70.4669C93.793 70.4669 90.239 71.5099 87.2161 73.4638C84.1932 75.4178 81.8372 78.195 80.4459 81.4444C79.0546 84.6937 78.6906 88.2692 79.3998 91.7186C80.1091 95.1681 81.8599 98.3367 84.4306 100.824C87.0014 103.311 90.2767 105.004 93.8424 105.69C97.4082 106.376 101.104 106.024 104.463 104.678C107.822 103.332 110.693 101.053 112.713 98.1289C114.732 95.2045 115.81 91.7665 115.81 88.2494C115.803 83.5355 113.864 79.0168 110.418 75.6835C106.972 72.3503 102.301 70.4744 97.4285 70.4669ZM97.4285 100.069C94.9898 100.071 92.6054 99.3722 90.5771 98.0623C88.5487 96.7525 86.9676 94.8901 86.0337 92.7108C85.0997 90.5314 84.855 88.133 85.3304 85.819C85.8058 83.5051 86.98 81.3795 88.7045 79.7113C90.4289 78.0431 92.6261 76.9072 95.0181 76.4472C97.4101 75.9873 99.8893 76.2241 102.142 77.1276C104.395 78.0311 106.32 79.5606 107.674 81.5228C109.028 83.485 109.75 85.7917 109.749 88.1509C109.735 91.3078 108.433 94.3318 106.125 96.5641C103.818 98.7964 100.692 100.056 97.4285 100.069Z" fill="black"/>
<path d="M97.4287 83.3005C96.437 83.3005 95.4676 83.585 94.6431 84.118C93.8186 84.6509 93.176 85.4084 92.7965 86.2947C92.417 87.181 92.3177 88.1563 92.5111 89.0972C92.7046 90.0381 93.1821 90.9023 93.8833 91.5806C94.5845 92.259 95.4779 92.721 96.4505 92.9081C97.4232 93.0953 98.4313 92.9992 99.3474 92.6321C100.264 92.265 101.047 91.6433 101.598 90.8456C102.149 90.048 102.443 89.1102 102.443 88.1509C102.443 86.8645 101.914 85.6308 100.974 84.7211C100.034 83.8115 98.7584 83.3005 97.4287 83.3005Z" fill="black"/>
<path d="M81.1572 107.447C81.1572 108.143 80.9438 108.824 80.544 109.402C80.1442 109.981 79.576 110.432 78.9111 110.699C78.2462 110.965 77.5146 111.035 76.8088 110.899C76.103 110.763 75.4547 110.428 74.9458 109.936C74.437 109.444 74.0904 108.816 73.95 108.134C73.8096 107.451 73.8817 106.743 74.1571 106.1C74.4325 105.457 74.8989 104.907 75.4972 104.52C76.0956 104.134 76.799 103.927 77.5187 103.927C78.4837 103.927 79.4091 104.298 80.0915 104.958C80.7739 105.618 81.1572 106.513 81.1572 107.447Z" fill="black"/>
<path d="M97.4286 111.995C96.7089 111.995 96.0055 112.201 95.4071 112.588C94.8088 112.975 94.3424 113.524 94.067 114.167C93.7916 114.811 93.7196 115.518 93.86 116.201C94.0003 116.884 94.3469 117.511 94.8558 118.003C95.3646 118.496 96.0129 118.831 96.7187 118.967C97.4245 119.103 98.1562 119.033 98.821 118.766C99.4859 118.5 100.054 118.049 100.454 117.47C100.854 116.891 101.067 116.211 101.067 115.515C101.052 114.585 100.664 113.699 99.9848 113.042C99.3057 112.385 98.3889 112.009 97.4286 111.995Z" fill="black"/>
<path d="M114.872 105.018C114.356 105.508 114.002 106.135 113.856 106.819C113.709 107.504 113.777 108.215 114.05 108.863C114.324 109.51 114.79 110.064 115.39 110.454C115.99 110.844 116.696 111.052 117.419 111.052C118.142 111.052 118.848 110.844 119.448 110.454C120.048 110.064 120.514 109.51 120.787 108.863C121.061 108.215 121.128 107.504 120.982 106.819C120.836 106.135 120.482 105.508 119.966 105.018C119.636 104.687 119.24 104.423 118.803 104.243C118.365 104.063 117.894 103.971 117.419 103.971C116.943 103.971 116.473 104.063 116.035 104.243C115.597 104.423 115.202 104.687 114.872 105.018Z" fill="black"/>
<path d="M125.627 84.7154C124.908 84.7154 124.204 84.9219 123.606 85.3086C123.008 85.6954 122.541 86.2451 122.266 86.8883C121.99 87.5315 121.918 88.2392 122.059 88.922C122.199 89.6048 122.546 90.232 123.054 90.7242C123.563 91.2165 124.212 91.5518 124.917 91.6876C125.623 91.8234 126.355 91.7537 127.02 91.4873C127.685 91.2208 128.253 90.7697 128.653 90.1908C129.052 89.612 129.266 88.9315 129.266 88.2353C129.276 87.7704 129.188 87.3084 129.009 86.877C128.83 86.4456 128.562 86.0539 128.222 85.7251C127.882 85.3963 127.477 85.1374 127.031 84.9639C126.585 84.7904 126.108 84.7058 125.627 84.7154Z" fill="black"/>
<path d="M114.872 66.4261C114.356 66.9155 114.002 67.5425 113.856 68.2272C113.709 68.9119 113.777 69.6233 114.05 70.2706C114.324 70.9179 114.79 71.4717 115.39 71.8616C115.99 72.2515 116.696 72.4597 117.419 72.4597C118.142 72.4597 118.848 72.2515 119.448 71.8616C120.048 71.4717 120.514 70.9179 120.787 70.2706C121.061 69.6233 121.128 68.9119 120.982 68.2272C120.836 67.5425 120.482 66.9155 119.966 66.4261C119.636 66.0939 119.241 65.8296 118.803 65.649C118.366 65.4684 117.895 65.3754 117.419 65.3754C116.943 65.3754 116.472 65.4684 116.034 65.649C115.597 65.8296 115.201 66.0939 114.872 66.4261Z" fill="black"/>
</g>
<defs>
<clipPath id="clip0_434_8604">
<rect width="99.2157" height="95.9804" fill="white" transform="translate(42.3921 34.902)"/>
</clipPath>
</defs>
</svg>
