<svg width="184" height="178" viewBox="0 0 184 178" fill="none" xmlns="http://www.w3.org/2000/svg">
<g clip-path="url(#clip0_434_8637)">
<path d="M65.5367 112.976C65.3703 112.977 65.2043 112.962 65.041 112.931L54.4212 111.065C53.1398 110.93 51.9659 110.309 51.1567 109.339C49.7953 107.735 49.4319 105.331 50.0861 102.186C50.5487 99.9429 51.2955 97.4948 53.3243 96.3762C55.3531 95.2577 57.3686 95.9799 58.611 96.3762L58.8555 96.4721L69.6339 101.208C70.1436 101.436 70.5715 101.805 70.863 102.27L73.8038 107.012C74.0158 107.357 74.1454 107.742 74.1831 108.141C74.2209 108.54 74.1657 108.942 74.0219 109.318C73.878 109.694 73.6491 110.034 73.3518 110.313C73.0544 110.592 72.6963 110.803 72.3037 110.93L66.4222 112.848C66.1358 112.936 65.837 112.979 65.5367 112.976ZM55.3926 105.791L65.3053 107.536L67.235 106.897L66.5147 105.74L56.6416 101.4C56.3905 101.317 56.1989 101.26 56.0535 101.221C55.7956 101.868 55.6052 102.538 55.4852 103.222C55.2632 104.062 55.2316 104.938 55.3926 105.791Z" fill="black"/>
<path d="M91.9966 112.976C90.6726 112.977 89.378 112.599 88.2764 111.888C87.1747 111.178 86.3157 110.167 85.8078 108.985C85.2999 107.802 85.166 106.5 85.423 105.244C85.68 103.988 86.3164 102.833 87.2517 101.927C88.187 101.02 89.3792 100.403 90.6776 100.152C91.9759 99.9005 93.322 100.027 94.5457 100.516C95.7695 101.005 96.8158 101.834 97.5525 102.898C98.2891 103.962 98.683 105.214 98.6843 106.494C98.6852 107.345 98.5129 108.187 98.1773 108.973C97.8417 109.759 97.3493 110.473 96.7283 111.075C96.1073 111.677 95.3698 112.154 94.5579 112.48C93.7461 112.807 92.8757 112.975 91.9966 112.976ZM91.9966 105.395C91.7692 105.395 91.5469 105.46 91.3578 105.582C91.1687 105.705 91.0213 105.878 90.9343 106.082C90.8472 106.285 90.8245 106.508 90.8688 106.724C90.9132 106.94 91.0227 107.138 91.1835 107.294C91.3443 107.449 91.5493 107.555 91.7723 107.598C91.9954 107.641 92.2265 107.619 92.4366 107.535C92.6468 107.451 92.8263 107.308 92.9527 107.125C93.079 106.942 93.1464 106.727 93.1464 106.507C93.1464 106.361 93.1167 106.217 93.0589 106.082C93.0011 105.947 92.9165 105.824 92.8097 105.721C92.703 105.618 92.5761 105.536 92.4366 105.48C92.2971 105.424 92.1476 105.395 91.9966 105.395Z" fill="black"/>
<path d="M42.0503 52.4833C40.0677 52.4833 33.228 52.4833 33.228 56.2737C33.228 60.0641 44.0064 60.064 44.0064 60.064V54.3753C44.0156 54.121 43.9707 53.8677 43.8743 53.631C43.7779 53.3944 43.6322 53.1794 43.4463 52.9995C43.2603 52.8196 43.038 52.6787 42.7933 52.5855C42.5486 52.4923 42.2867 52.4488 42.0238 52.4577L42.0503 52.4833Z" fill="black"/>
<path d="M118.457 112.976C118.159 112.976 117.862 112.931 117.578 112.842L111.697 110.924C111.304 110.796 110.946 110.585 110.649 110.306C110.351 110.027 110.122 109.687 109.978 109.312C109.835 108.936 109.779 108.534 109.817 108.135C109.855 107.736 109.985 107.35 110.197 107.006L113.137 102.263C113.427 101.798 113.855 101.428 114.366 101.202L125.145 96.4657L125.389 96.3698C126.625 95.9608 128.694 95.2641 130.676 96.3698C132.659 97.4756 133.458 99.9365 133.921 102.18C134.582 105.325 134.212 107.728 132.85 109.332C132.041 110.303 130.867 110.924 129.586 111.058L118.966 112.925C118.799 112.958 118.628 112.976 118.457 112.976ZM116.726 106.916L118.655 107.556L128.568 105.811C128.716 104.96 128.673 104.088 128.442 103.254C128.322 102.57 128.132 101.9 127.874 101.253C127.729 101.292 127.537 101.349 127.286 101.432L117.413 105.772L116.726 106.916Z" fill="black"/>
<path d="M141.97 52.4833C141.707 52.4744 141.445 52.5179 141.2 52.6111C140.956 52.7043 140.733 52.8452 140.547 53.0251C140.361 53.205 140.216 53.4199 140.119 53.6566C140.023 53.8932 139.978 54.1466 139.987 54.4008V60.0896C139.987 60.0896 150.766 60.0896 150.766 56.2992C150.766 52.5088 143.906 52.5089 141.943 52.5089L141.97 52.4833Z" fill="black"/>
<path d="M133.154 141.89H50.8395C49.62 141.926 48.4056 141.723 47.2697 141.292C46.1338 140.861 45.1001 140.212 44.231 139.384C41.2242 136.438 41.1911 132.085 41.1977 131.599V126.412C41.1977 125.701 41.4892 125.019 42.0083 124.516C42.5274 124.012 43.2317 123.729 43.9667 123.727H140.001C140.735 123.729 141.44 124.012 141.959 124.516C142.478 125.019 142.77 125.701 142.77 126.412V131.631C142.77 132.085 142.769 136.438 139.736 139.384C138.87 140.209 137.841 140.857 136.71 141.287C135.579 141.718 134.369 141.923 133.154 141.89ZM46.7554 129.09V131.631C46.7554 132.794 47.0528 136.533 50.8395 136.533H133.154C136.941 136.533 137.238 132.794 137.238 131.644V129.09H46.7554Z" fill="black"/>
<path d="M40.3981 91.0134V112.522H36.7635V91.0134H40.3783M42.982 85.6571H34.1598C31.2256 85.6571 31.2256 88.5014 31.2256 88.5014V115.034C31.2256 115.034 31.2256 117.878 34.1598 117.878H42.982C42.982 117.878 45.9228 117.878 45.9228 115.034V88.5014C45.9228 85.657 42.982 85.6571 42.982 85.6571Z" fill="black"/>
<path d="M147.21 91.0134V112.522H143.596V91.0134H147.21ZM149.807 85.6571H140.992C140.992 85.6571 138.051 85.657 138.051 88.5014V115.034C138.051 117.878 140.992 117.878 140.992 117.878H149.807C152.748 117.878 152.748 115.034 152.748 115.034V88.5014C152.748 88.5014 152.748 85.6571 149.807 85.6571Z" fill="black"/>
<path d="M130.213 60.8502H53.7801C53.2966 60.8509 52.8214 60.7291 52.4017 60.4969C51.982 60.2648 51.6325 59.9304 51.3879 59.5271C51.1433 59.1237 51.0121 58.6654 51.0075 58.1978C51.0028 57.7302 51.1248 57.2696 51.3613 56.8617C51.7116 56.2609 59.9523 42.0582 63.4151 37.52C66.8185 33.084 79.401 32.7453 83.1744 32.7453H100.812C104.586 32.7453 117.168 33.0968 120.763 37.6926C124.272 42.1669 132.302 56.2801 132.658 56.8681C132.89 57.2759 133.008 57.7351 133.001 58.2004C132.994 58.6658 132.861 59.1212 132.616 59.5219C132.372 59.9225 132.023 60.2546 131.605 60.4853C131.187 60.716 130.714 60.8373 130.233 60.8374L130.213 60.8502ZM58.5315 55.4875H125.495C122.852 50.9173 118.516 43.6946 116.349 40.9333C115.027 39.2586 107.097 38.1016 100.812 38.1016H83.1744C76.2091 38.1016 68.9134 39.38 67.8627 40.7159C65.6753 43.5603 61.2608 50.8853 58.5315 55.4875Z" fill="black"/>
<path d="M113.164 91.154H95.8164C95.0815 91.1523 94.3772 90.8688 93.8581 90.3655C93.339 89.8622 93.0475 89.1804 93.0475 88.4695C93.052 88.1846 93.0785 87.9004 93.1268 87.6193V87.4787C93.1207 87.1838 92.9936 86.9032 92.7737 86.6989C92.5537 86.4945 92.2588 86.383 91.9538 86.3889C91.6489 86.3949 91.3588 86.5177 91.1475 86.7305C90.9362 86.9432 90.821 87.2285 90.8271 87.5234V87.7727C90.9382 88.1677 90.9543 88.5821 90.874 88.9841C90.7937 89.386 90.6192 89.7648 90.3639 90.0913C90.1086 90.4179 89.7794 90.6834 89.4014 90.8676C89.0235 91.0518 88.6069 91.1498 88.1837 91.154H70.8366C70.3609 91.156 69.8927 91.0394 69.4771 90.8155C69.0616 90.5916 68.7127 90.2679 68.4641 89.8757L66.5542 86.8011L56.6813 82.4611L56.1129 82.2821C56.0402 82.4547 55.9543 82.6848 55.8552 82.998C55.7223 83.4471 55.4701 83.8547 55.1235 84.1801C54.777 84.5055 54.3482 84.7373 53.8802 84.8524C53.4121 84.9675 52.921 84.962 52.4559 84.8362C51.9907 84.7105 51.5678 84.469 51.2293 84.1358L45.9425 79.0223C45.6824 78.7707 45.4767 78.4716 45.3371 78.1424C45.1976 77.8132 45.1271 77.4605 45.1297 77.1048C45.1297 71.6653 50.3041 69.6838 53.7801 69.6838H130.213C133.689 69.6838 138.864 71.6653 138.864 77.1048C138.866 77.4605 138.796 77.8132 138.656 78.1424C138.517 78.4716 138.311 78.7707 138.051 79.0223L132.764 84.1358C132.426 84.469 132.003 84.7105 131.538 84.8362C131.073 84.962 130.581 84.9675 130.113 84.8524C129.645 84.7373 129.217 84.5055 128.87 84.1801C128.523 83.8547 128.271 83.4471 128.138 82.998C128.039 82.6848 127.953 82.4547 127.881 82.2821L127.312 82.4611L117.439 86.8011L115.529 89.8757C115.281 90.267 114.934 90.5901 114.519 90.8139C114.105 91.0378 113.638 91.1549 113.164 91.154ZM98.44 85.7913H111.591L113.137 83.3048C113.427 82.8392 113.855 82.4694 114.366 82.2438L125.145 77.501L125.383 77.4116C126.651 76.9833 128.575 76.3377 130.471 77.2773C130.794 77.4403 131.096 77.6398 131.37 77.8717L133.088 76.2099C132.473 75.168 130.788 75.0466 130.194 75.0402H53.7801C53.2052 75.0402 51.5201 75.168 50.8989 76.2099L52.6237 77.8717C52.8967 77.6384 53.1985 77.4388 53.5224 77.2773C55.419 76.3377 57.3421 76.9833 58.611 77.4116L58.8488 77.501L69.6272 82.2438C70.1383 82.4694 70.5668 82.8392 70.8563 83.3048L72.3962 85.7913H85.5469C85.9407 84.4306 86.7839 83.2318 87.9479 82.3779C89.1118 81.524 90.5325 81.0617 91.9934 81.0617C93.4543 81.0617 94.8751 81.524 96.0391 82.3779C97.203 83.2318 98.0462 84.4306 98.44 85.7913Z" fill="black"/>
</g>
<defs>
<clipPath id="clip0_434_8637">
<rect width="121.509" height="112.509" fill="white" transform="translate(31.2454 32.7453)"/>
</clipPath>
</defs>
</svg>
