<svg width="184" height="178" viewBox="0 0 184 178" fill="none" xmlns="http://www.w3.org/2000/svg">
<g clip-path="url(#clip0_434_8531)">
<path d="M98.0964 124.427H76.5069C70.9632 124.497 65.4601 123.52 60.3172 121.554C55.1742 119.588 50.4939 116.671 46.5477 112.974C42.6015 109.276 39.4681 104.87 37.3295 100.013C35.1909 95.1562 34.0896 89.9442 34.0896 84.6796C34.0896 79.4151 35.1909 74.203 37.3295 69.3459C39.4681 64.4888 42.6015 60.0834 46.5477 56.3856C50.4939 52.6878 55.1742 49.7711 60.3172 47.8049C65.4601 45.8388 70.9632 44.8622 76.5069 44.932H98.0964C98.9747 44.932 99.817 45.2633 100.438 45.853C101.059 46.4426 101.408 47.2424 101.408 48.0763V121.283C101.406 122.116 101.056 122.915 100.436 123.504C99.8153 124.094 98.9741 124.425 98.0964 124.427ZM76.5069 51.2207C67.2499 51.3477 58.4174 54.9287 51.9185 61.1897C45.4196 67.4506 41.7765 75.8886 41.7765 84.6796C41.7765 93.4707 45.4196 101.909 51.9185 108.17C58.4174 114.431 67.2499 118.012 76.5069 118.139H94.7851V51.2207H76.5069Z" fill="black"/>
<path d="M120.827 55.8393V48.5026L144.889 54.2112V61.555L120.827 55.8393Z" fill="black"/>
<path d="M120.827 87.2754V79.9317L144.889 85.6474V92.9911L120.827 87.2754Z" fill="black"/>
<path d="M120.827 118.712V111.368L144.889 117.076V124.42L120.827 118.712Z" fill="black"/>
</g>
<defs>
<clipPath id="clip0_434_8531">
<rect width="110.222" height="79.4951" fill="white" transform="translate(34.6666 44.932)"/>
</clipPath>
</defs>
</svg>
