<svg width="184" height="178" viewBox="0 0 184 178" fill="none" xmlns="http://www.w3.org/2000/svg">
<g clip-path="url(#clip0_434_8571)">
<path d="M101.525 48.7501C103.744 48.7475 105.88 49.5437 107.502 50.977C108.342 51.7027 109.013 52.5874 109.469 53.5739C109.925 54.5604 110.157 55.6266 110.15 56.7035V82.1161C110.146 83.1948 109.905 84.261 109.442 85.2468C108.979 86.2326 108.305 87.1165 107.461 87.8425C105.841 89.271 103.713 90.0704 101.498 90.0821H100.598L46.0966 86.0927C43.9571 85.9372 41.9566 85.0294 40.4885 83.5481C39.0205 82.0668 38.1911 80.1192 38.1638 78.0884V60.7374C38.1882 58.7047 39.0173 56.7547 40.4874 55.2726C41.9574 53.7906 43.9615 52.8844 46.1034 52.7332L100.84 48.7246C101.068 48.7246 101.297 48.7246 101.512 48.7246M101.512 42.9982C101.129 42.9982 100.739 42.9983 100.349 43.0428L45.6261 47.0512C41.9705 47.3126 38.5518 48.8635 36.0469 51.3969C33.542 53.9303 32.1335 57.2615 32.1001 60.731V78.1457C32.1335 81.6152 33.542 84.9465 36.0469 87.4798C38.5518 90.0132 41.9705 91.5641 45.6261 91.8254L100.349 95.834H101.485C105.228 95.8198 108.828 94.4729 111.569 92.0609C113.029 90.7953 114.194 89.2556 114.99 87.54C115.787 85.8245 116.197 83.9707 116.194 82.097V56.7098C116.203 54.8352 115.795 52.9797 114.998 51.2634C114.202 49.5471 113.034 48.0081 111.569 46.7458C108.834 44.3512 105.245 43.0219 101.519 43.0237L101.512 42.9982Z" fill="black"/>
<path d="M35.8108 74.9643V69.8742H65.1554C66.1046 69.8684 67.0139 69.5123 67.6899 68.8816C68.0405 68.5597 68.3202 68.1752 68.5129 67.7504C68.7055 67.3255 68.8074 66.8688 68.8125 66.4065C68.8091 65.4915 68.4224 64.6151 67.737 63.9697C67.3993 63.6471 66.9971 63.3915 66.5538 63.2178C66.1106 63.0441 65.6352 62.9558 65.1554 62.9579H35.8108V57.8678H65.1554C66.3419 57.8637 67.5173 58.0826 68.6136 58.5119C69.71 58.9411 70.7054 59.5722 71.542 60.3684C72.3892 61.1668 73.0597 62.117 73.5143 63.1635C73.969 64.2101 74.1986 65.3319 74.1899 66.4634C74.1811 67.5949 73.9341 68.7134 73.4633 69.7535C72.9925 70.7937 72.3073 71.7345 71.4478 72.5211C69.7719 74.0799 67.5186 74.9567 65.1689 74.9643H35.8108Z" fill="black"/>
<path d="M144.187 126.54H144.04C143.109 126.515 142.202 126.252 141.418 125.777L91.8579 95.1341L95.1654 90.343L143.253 120.057V73.5582L112.463 67.8318L113.633 62.2072L145.182 68.0736C146.358 68.288 147.416 68.8891 148.169 69.7705C148.922 70.6519 149.321 71.757 149.297 72.8902V121.698C149.297 122.564 149.051 123.413 148.585 124.157C148.119 124.902 147.45 125.514 146.648 125.929C145.916 126.332 145.087 126.551 144.241 126.566L144.187 126.54Z" fill="black"/>
</g>
<defs>
<clipPath id="clip0_434_8571">
<rect width="117.17" height="83.5166" fill="white" transform="translate(32.1133 43.0237)"/>
</clipPath>
</defs>
</svg>
