<svg width="184" height="178" viewBox="0 0 184 178" fill="none" xmlns="http://www.w3.org/2000/svg">
<g clip-path="url(#clip0_434_8617)">
<path d="M91.5028 50.025C107.952 50.025 125.05 52.85 142.328 58.4234C147.158 59.9864 151.802 61.6969 156.165 63.5482L145.548 107.789H37.6041L26.8472 63.5482C31.2035 61.7161 35.847 60.0057 40.6776 58.4234C57.9556 52.85 75.0533 50.025 91.5028 50.025ZM91.5028 44.2595C73.4631 44.2595 55.6171 47.5201 38.76 52.9589C32.8537 54.8808 27.502 56.9051 22.805 58.9423C21.1681 59.647 19.8918 60.3004 19.8918 60.3004L32.8337 113.535H150.332L163.114 60.2876C163.114 60.2876 161.831 59.647 160.2 58.9423C155.523 56.9051 150.178 54.8679 144.245 52.9589C127.388 47.5201 109.502 44.2595 91.5028 44.2595Z" fill="black"/>
<path d="M75.8082 112.465L70.5365 90.5564L50.165 86.6679L51.341 81.0177L73.6167 85.265C74.1849 85.3729 74.7084 85.6358 75.1244 86.0222C75.5404 86.4086 75.8313 86.902 75.9618 87.4431L81.6678 111.146L75.8082 112.465Z" fill="black"/>
<path d="M118.683 112.465L113.411 90.5564L93.0396 86.6679L94.2153 81.0177L116.491 85.265C117.059 85.3729 117.583 85.6358 117.999 86.0222C118.415 86.4086 118.706 86.902 118.836 87.4431L124.542 111.146L118.683 112.465Z" fill="black"/>
</g>
<defs>
<clipPath id="clip0_434_8617">
<rect width="143.222" height="69.2757" fill="white" transform="translate(19.8918 44.2595)"/>
</clipPath>
</defs>
</svg>
