<svg width="184" height="178" viewBox="0 0 184 178" fill="none" xmlns="http://www.w3.org/2000/svg">
<g clip-path="url(#clip0_434_8652)">
<path d="M81.5586 115.199C81.6816 115.908 82.0633 116.552 82.6353 117.016C83.2074 117.479 83.9325 117.732 84.681 117.73H99.3689C100.117 117.732 100.843 117.479 101.415 117.016C101.987 116.552 102.368 115.908 102.491 115.199L102.616 114.497H81.4649L81.5586 115.199ZM81.5024 109.675H102.51V103.858H81.5024V109.675ZM81.5024 99.0362H102.51V94.9159H81.5024V99.0362ZM73.4653 90.1H110.553V84.2348H73.4653V90.1ZM81.6398 122.174C80.1507 121.642 78.8743 120.672 77.9928 119.403C77.0747 118.163 76.5498 116.695 76.4815 115.175V114.605H72.7346V109.807H76.4815V103.894H72.7346V99.0961H76.4815V94.9579H70.9486C70.2861 94.9579 69.6508 94.7052 69.1823 94.2553C68.7139 93.8054 68.4507 93.1952 68.4507 92.559V81.8238C68.4507 81.1876 68.7139 80.5773 69.1823 80.1274C69.6508 79.6775 70.2861 79.4249 70.9486 79.4249H78.3425L80.216 39.9624L85.2118 39.8904L83.3384 79.4249H100.637L98.7632 39.8904H103.759L105.632 79.4249H113.064C113.726 79.4249 114.362 79.6775 114.83 80.1274C115.299 80.5773 115.562 81.1876 115.562 81.8238V92.505C115.562 92.8215 115.497 93.1351 115.371 93.4274C115.244 93.7197 115.059 93.9851 114.825 94.2083C114.593 94.4328 114.316 94.6109 114.012 94.7323C113.707 94.8538 113.381 94.9162 113.051 94.9159H107.525V99.0062H111.272V103.804H107.525V109.639H111.272V114.437H107.525V115.037C107.421 117.053 106.516 118.954 104.996 120.349C103.477 121.743 101.458 122.525 99.3564 122.534H87.0853C87.0853 122.534 83.3946 122.684 81.6398 122.174Z" fill="black"/>
<path d="M103.628 44.4124V39.8184H80.3594V44.4124H103.628Z" fill="black"/>
<path d="M89.4832 41.2038V33.2153H94.4978V41.0898" fill="black"/>
<path d="M89.8578 122.546V126.33H99.4998V131.128H87.3349C87.0042 131.129 86.6766 131.067 86.3711 130.946C86.0656 130.824 85.7882 130.645 85.5551 130.42C85.0881 129.967 84.8257 129.355 84.8245 128.717V122.294" fill="black"/>
</g>
<defs>
<clipPath id="clip0_434_8652">
<rect width="47.1111" height="97.9426" fill="white" transform="translate(68.4443 33.2153)"/>
</clipPath>
</defs>
</svg>
