<svg width="184" height="178" viewBox="0 0 184 178" fill="none" xmlns="http://www.w3.org/2000/svg">
<g clip-path="url(#clip0_434_8540)">
<path d="M135.931 43.9341C126.275 34.551 113.553 28.6987 99.9355 27.3751C86.3176 26.0515 72.6467 29.3385 61.2541 36.6758C49.8614 44.013 41.4524 54.9462 37.4609 67.6108C33.4694 80.2754 34.1426 93.8871 39.3658 106.125C44.5889 118.363 54.0385 128.47 66.1032 134.721C78.168 140.973 92.1008 142.982 105.526 140.407C118.951 137.832 131.037 130.831 139.723 120.599C148.409 110.367 153.157 97.5371 153.158 84.297C153.184 76.8019 151.676 69.376 148.719 62.4481C145.762 55.5203 141.416 49.2277 135.931 43.9341ZM145.75 102.961L129.878 88.5761C130.08 87.1701 130.193 85.7534 130.214 84.334V82.2092L148.964 90.7008C148.331 94.8834 147.254 98.9918 145.75 102.961ZM137.332 117.501L126.855 99.0369C127.74 97.119 128.474 95.1392 129.051 93.1143L144.089 106.84C142.223 110.598 139.959 114.159 137.332 117.464V117.501ZM117.059 111.289L120.947 130.893C117.147 132.906 113.124 134.495 108.955 135.632L111.656 114.717C113.559 113.732 115.367 112.585 117.059 111.289ZM94.2612 115.213C87.9459 115.215 81.7719 113.404 76.5203 110.011C71.2686 106.618 67.1751 101.794 64.7577 96.1499C62.3402 90.5058 61.7072 84.2949 62.9389 78.3028C64.1706 72.3106 67.2116 66.8065 71.6773 62.4865C76.1429 58.1664 81.8326 55.2245 88.0267 54.033C94.2208 52.8415 100.641 53.4537 106.475 55.7924C112.31 58.131 117.296 62.0911 120.804 67.1716C124.311 72.252 126.183 78.2246 126.181 84.334C126.149 92.5184 122.768 100.357 116.778 106.137C110.788 111.917 102.676 115.166 94.2153 115.176L94.2612 115.213ZM75.0066 134.166L89.8685 118.804C91.325 118.996 92.7916 119.107 94.2612 119.137H96.2893L87.5038 137.105C83.2306 136.605 79.0348 135.611 75.0066 134.144V134.166ZM59.9764 126.022L79.0626 115.894C81.031 116.747 83.0621 117.457 85.139 118.019L70.9506 132.559C67.0456 130.794 63.3633 128.601 59.9764 126.022ZM41.1809 98.5187L62.609 101.132C63.631 103.009 64.8767 104.763 66.3206 106.359L46.0558 110.12C44.0349 106.417 42.3945 102.531 41.158 98.5187H41.1809ZM42.7115 65.6701L58.5912 80.0549C58.3954 81.4616 58.2829 82.8779 58.2545 84.297V86.2588L39.658 77.7894C40.1587 73.6504 41.1869 69.5871 42.7192 65.6923L42.7115 65.6701ZM51.1297 51.1301L61.5988 69.5939C60.6955 71.492 59.9608 73.461 59.4024 75.4795L44.3722 61.7539C46.1993 57.9753 48.4664 54.4109 51.1297 51.1301ZM58.8973 90.8342C59.2602 92.9161 59.8847 94.9473 60.757 96.8826L40.1401 94.4247C39.4629 91.0887 39.1246 87.6967 39.13 84.297V82.0093L58.8973 90.8342ZM71.3945 57.3414L67.5145 37.7375C71.3136 35.7242 75.3367 34.1346 79.5065 32.9993L76.805 53.9137C74.9008 54.9002 73.0903 56.0471 71.3945 57.3414ZM113.485 34.4652L98.6234 49.8271C97.1676 49.6291 95.7006 49.5179 94.2306 49.494H92.0343L100.82 31.5261C105.151 32.0076 109.405 33.0022 113.485 34.4874V34.4652ZM128.347 42.6088L109.429 52.7365C107.471 51.8607 105.438 51.1499 103.353 50.6119L117.534 36.0717C121.389 37.8364 125.018 40.0303 128.347 42.6088ZM147.28 70.0752L125.661 67.4618C124.58 65.6189 123.335 63.87 121.942 62.2351L142.214 58.4741C144.414 62.1133 146.116 66.0128 147.28 70.0752ZM129.541 77.5969C129.181 75.5152 128.559 73.484 127.689 71.5485L148.291 74.1619C148.971 77.4976 149.312 80.8896 149.308 84.2896V86.5773L129.541 77.5969ZM140.018 54.8836L118.735 58.8C117.241 57.3209 115.535 56.0568 113.669 55.0465L131.745 45.4221C132.235 45.8147 132.686 46.2509 133.092 46.7251C135.716 49.1733 138.04 51.9058 140.018 54.8688V54.8836ZM96.6107 31.193L87.3201 50.1454C85.1671 50.4926 83.0669 51.0971 81.0677 51.9445L83.7768 32.0073C87.2252 31.3518 90.7317 31.0244 94.246 31.03C95.026 31.1652 95.8187 31.2199 96.6107 31.193ZM63.8411 39.8474L67.8971 60.4361C66.3662 61.9233 65.0062 63.5665 63.8411 65.337L53.8923 47.8579L55.2469 46.5475C57.9224 44.09 60.8019 41.8491 63.8564 39.8474H63.8411ZM48.3057 113.54L69.5884 109.616C71.1226 111.101 72.8216 112.417 74.6546 113.54L56.5785 123.164L55.2316 121.861C52.6649 119.303 50.3584 116.511 48.344 113.525L48.3057 113.54ZM91.8812 137.394L101.003 118.441C103.154 118.094 105.252 117.49 107.248 116.642L104.715 136.579C101.267 137.235 97.7603 137.562 94.246 137.556C93.4042 137.556 92.5547 137.394 91.8812 137.394ZM124.651 128.576L120.595 107.988C122.084 106.465 123.441 104.825 124.651 103.087L134.6 120.566C134.189 121.041 133.736 121.479 133.245 121.876C130.655 124.416 127.765 126.652 124.635 128.539L124.651 128.576Z" fill="black"/>
<path d="M94.2154 142.058C84.4086 142.038 74.7578 139.681 66.1164 135.196C57.4749 130.71 50.1089 124.234 44.6696 116.34C39.2304 108.446 35.8854 99.377 34.9304 89.935C33.9755 80.493 35.4399 70.9688 39.1943 62.2045C42.9488 53.4402 48.8775 45.7058 56.4564 39.685C64.0352 33.6642 73.0308 29.5426 82.6477 27.6844C92.2646 25.8263 102.207 26.2889 111.595 29.0314C120.983 31.7738 129.528 36.7118 136.475 43.4085C144.851 51.4835 150.559 61.7834 152.875 73.0017C155.192 84.2199 154.011 95.8508 149.484 106.419C144.957 116.987 137.287 126.017 127.447 132.362C117.607 138.707 106.041 142.081 94.2154 142.058ZM94.2154 28.0466C80.7914 28.0811 67.7947 32.6155 57.4381 40.8778C47.0815 49.1402 40.0053 60.6196 37.4143 73.3617C34.8232 86.1038 36.8774 99.321 43.2273 110.763C49.5771 122.204 59.83 131.163 72.2402 136.114C84.6505 141.065 98.4509 141.701 111.292 137.916C124.133 134.13 135.221 126.155 142.667 115.35C150.114 104.545 153.459 91.5773 152.133 78.6545C150.807 65.7317 144.892 53.6528 135.395 44.4745C129.998 39.2321 123.579 35.0776 116.51 32.2513C109.442 29.4251 101.864 27.9833 94.2154 28.0095V28.0466ZM94.2154 138.356C93.7498 138.351 93.2849 138.321 92.8226 138.267C92.4629 138.23 92.1262 138.193 91.8507 138.193H90.6492L100.453 117.767L100.85 117.708C102.943 117.373 104.985 116.787 106.927 115.961L108.136 115.472L105.381 137.201L104.838 137.305C101.339 137.971 97.7812 138.304 94.2154 138.297V138.356ZM93.0139 136.794C93.4125 136.843 93.8136 136.87 94.2154 136.875C97.4959 136.88 100.77 136.593 103.996 136.017L106.292 117.856C104.737 118.442 103.128 118.881 101.486 119.167L93.0139 136.794ZM87.9171 137.927L87.3661 137.867C83.0354 137.369 78.7812 136.375 74.693 134.906L73.6215 134.514L89.5242 118.071L90.3507 118.16C91.6198 118.321 92.8973 118.412 94.1771 118.434H97.4143L87.9171 137.927ZM76.3154 133.877C79.7897 135.049 83.3802 135.871 87.0294 136.328L95.0572 119.892H94.2384C92.8895 119.875 91.5428 119.781 90.2053 119.611H90.1441L76.3154 133.877ZM108.006 136.668L110.899 114.273L111.243 114.095C113.106 113.127 114.878 112.002 116.539 110.734L117.526 109.994L121.758 131.338L121.268 131.597C117.417 133.636 113.34 135.247 109.116 136.401L108.006 136.668ZM112.322 115.198L109.781 134.573C113.322 133.529 116.749 132.152 120.013 130.464L116.501 112.585C115.166 113.524 113.77 114.38 112.322 115.147V115.198ZM71.0808 133.448L70.5757 133.211C66.6173 131.423 62.8838 129.202 59.4484 126.592L58.553 125.896L78.9709 115.058L79.3076 115.198C81.2426 116.033 83.2375 116.731 85.2768 117.286L86.5472 117.59L71.0808 133.448ZM61.3157 126.118C64.2582 128.258 67.414 130.108 70.7364 131.641L83.6698 118.382C82.1392 117.923 80.6086 117.308 79.078 116.701L61.3157 126.118ZM124.069 129.82L119.73 107.743L120.013 107.462C121.476 105.972 122.804 104.365 123.985 102.657L124.689 101.687L135.526 120.729L135.12 121.121C134.959 121.277 134.814 121.439 134.676 121.587C134.396 121.92 134.074 122.218 133.72 122.476C131.102 125.05 128.181 127.318 125.018 129.235L124.069 129.82ZM121.391 108.284L125.156 127.421C127.872 125.672 130.396 123.658 132.686 121.41L132.809 121.321C133.075 121.121 133.316 120.893 133.528 120.64L133.643 120.514L124.536 104.538C123.578 105.836 122.527 107.068 121.391 108.225V108.284ZM56.4179 124.156L54.6577 122.454C52.0382 119.858 49.6831 117.024 47.6247 113.992L47.0278 113.074L69.8104 108.876L70.0936 109.157C71.5931 110.598 73.2479 111.878 75.0297 112.977L76.124 113.644L56.4179 124.156ZM49.5303 114.118C51.3973 116.712 53.478 119.155 55.7521 121.425L56.6781 122.32L73.1394 113.54C71.7791 112.622 70.4993 111.597 69.313 110.475L49.5303 114.118ZM137.171 118.878L125.96 99.1036L126.097 98.7705C126.964 96.9001 127.685 94.9699 128.255 92.9959L128.577 91.7668L144.985 106.662L144.747 107.151C142.86 110.955 140.567 114.558 137.906 117.901L137.171 118.878ZM127.651 99.0147L137.378 116.161C139.563 113.302 141.479 110.259 143.102 107.07L129.396 94.5505C128.914 95.9941 128.286 97.4972 127.658 98.9556L127.651 99.0147ZM94.2078 115.976C87.741 115.977 81.4191 114.123 76.0416 110.649C70.6641 107.174 66.4725 102.235 63.9971 96.4554C61.5217 90.676 60.8736 84.3161 62.1348 78.1804C63.3961 72.0447 66.5099 66.4086 71.0826 61.9851C75.6553 57.5615 81.4813 54.5493 87.8239 53.3292C94.1664 52.1091 100.741 52.736 106.715 55.1307C112.689 57.5254 117.795 61.5803 121.387 66.7824C124.978 71.9846 126.895 78.1004 126.893 84.3563C126.867 92.7278 123.414 100.748 117.29 106.663C111.166 112.578 102.869 115.905 94.2154 115.917L94.2078 115.976ZM94.2078 54.2098C88.0441 54.2083 82.0184 55.9753 76.8927 59.2869C71.7671 62.5986 67.7717 67.3062 65.4119 72.8146C63.0521 78.323 62.4339 84.3845 63.6355 90.2328C64.837 96.0811 67.8043 101.454 72.1622 105.67C76.52 109.887 82.0727 112.759 88.1178 113.923C94.1629 115.087 100.429 114.49 106.124 112.208C111.818 109.927 116.686 106.063 120.11 101.105C123.535 96.1477 125.363 90.319 125.363 84.3563C125.371 76.3557 122.094 68.6794 116.253 63.0152C110.413 57.3509 102.486 54.1625 94.2154 54.1507L94.2078 54.2098ZM45.658 111.001L45.3901 110.512C43.3468 106.764 41.6884 102.832 40.4387 98.7705L40.1096 97.6895L63.0682 100.495L63.2596 100.829C64.249 102.658 65.4617 104.365 66.8717 105.915L67.7747 106.892L45.658 111.001ZM42.2448 99.4442C43.3698 102.85 44.788 106.159 46.4844 109.335L64.9049 105.922C63.8673 104.65 62.9431 103.295 62.1422 101.872L42.2448 99.4442ZM146.033 104.279L129.036 88.887L129.082 88.5094C129.282 87.133 129.395 85.7461 129.419 84.3563V81.0617L149.775 90.2862L149.691 90.8342C149.05 95.0673 147.961 99.2251 146.439 103.242L146.033 104.279ZM130.651 88.3169L145.398 101.643C146.615 98.2232 147.514 94.705 148.084 91.1302L130.949 83.3642V84.3266C130.935 85.6415 130.837 86.9542 130.658 88.2577L130.651 88.3169ZM61.9892 97.7784L39.528 95.1057L39.4132 94.5875C38.7241 91.203 38.3807 87.7613 38.3877 84.3118V80.8618L59.6091 90.338L59.6704 90.7304C60.0216 92.7515 60.6281 94.7232 61.4764 96.6012L61.9892 97.7784ZM40.8137 93.7659L59.5861 95.9869C58.9783 94.4832 58.5221 92.9262 58.224 91.3376L39.9183 83.1939V84.3266C39.9133 87.4882 40.2131 90.6433 40.8137 93.7511V93.7659ZM150.043 87.7617L128.822 78.1374L128.76 77.7524C128.411 75.7277 127.801 73.7532 126.947 71.8742L126.442 70.6896L148.903 73.5399L149.01 74.0656C149.702 77.4472 150.048 80.8867 150.043 84.334V87.7617ZM130.207 77.101L148.513 85.4297V84.3044C148.516 81.1307 148.216 77.9634 147.617 74.8429L128.852 72.4591C129.452 73.9571 129.906 75.5062 130.207 77.0862V77.101ZM59.0352 87.4656L38.8622 78.2411L38.931 77.7153C39.4234 73.5196 40.4516 69.3992 41.9922 65.4482L42.3902 64.4116L59.3872 79.8031L59.2954 80.5953C59.1279 81.8378 59.0333 83.0886 59.0122 84.3415L59.0352 87.4656ZM40.5152 77.36L57.5046 85.1261V84.3415C57.5266 83.0343 57.6237 81.7293 57.7954 80.4325V80.3732L43.0483 67.0472C41.8162 70.3714 40.9568 73.814 40.4846 77.3157L40.5152 77.36ZM59.877 76.9233L43.4845 61.9612L43.7294 61.4725C45.5871 57.6387 47.8985 54.0264 50.617 50.708L51.3364 49.8419L62.5402 69.6013L62.3795 69.9419C61.4951 71.7968 60.7757 73.7212 60.229 75.6942L59.877 76.9233ZM45.3365 61.6205L59.0352 74.1322C59.5239 72.619 60.1065 71.1356 60.78 69.6903L51.0456 52.5292C48.8394 55.3586 46.9224 58.3886 45.3212 61.5762L45.3365 61.6205ZM148.314 70.9932L125.148 68.1651L124.957 67.832C123.898 66.0256 122.679 64.3114 121.314 62.7088L120.549 61.7539L142.589 57.6673L142.865 58.1114C145.099 61.8056 146.828 65.7651 148.007 69.8902L148.314 70.9932ZM126.12 66.8177L146.194 69.246C145.124 65.7956 143.65 62.4748 141.801 59.3478L123.296 62.7755C124.326 64.0463 125.266 65.3819 126.113 66.7734L126.12 66.8177ZM63.7723 66.8177L52.9052 47.7541L54.6654 46.0513C57.3756 43.5572 60.2964 41.2864 63.3973 39.2625L64.3539 38.6481L68.7007 60.7099L68.4176 60.9913C66.9229 62.437 65.5985 64.0384 64.4687 65.7665L63.7723 66.8177ZM54.8031 48.0133L63.8641 63.9156C64.8136 62.5998 65.8733 61.3618 67.0324 60.214L63.2748 41.1208C60.6107 42.941 58.084 44.9426 55.7138 47.1101L54.8031 48.0133ZM118.46 59.6365L118.169 59.3552C116.726 57.9265 115.079 56.7048 113.279 55.7275L112.054 55.0761L131.845 44.4745L132.25 44.8669C132.419 45.0298 132.579 45.1705 132.74 45.3038C133.079 45.5701 133.382 45.876 133.643 46.2143C136.293 48.6892 138.635 51.4544 140.622 54.4542L141.265 55.387L118.46 59.6365ZM115.184 55.0983C116.543 55.9621 117.809 56.9541 118.965 58.0597L138.709 54.4245C136.943 51.8441 134.89 49.4584 132.587 47.31L132.472 47.184C132.27 46.9231 132.033 46.6891 131.768 46.4882L131.638 46.3698L115.184 55.0983ZM70.9048 58.7111L66.6804 37.3673L67.1702 37.1082C71.0207 35.0681 75.0975 33.4562 79.3229 32.3035L80.4326 32.0073L77.5398 54.4023L77.1954 54.58C75.3321 55.5486 73.5601 56.6733 71.8996 57.9411L70.9048 58.7111ZM68.3946 38.152L71.9379 56.0458C73.2719 55.1009 74.6677 54.2403 76.1164 53.4695L78.6265 34.0432C75.0845 35.0782 71.6552 36.4444 68.3869 38.1225L68.3946 38.152ZM109.452 53.6177L109.108 53.462C107.19 52.602 105.198 51.9061 103.154 51.3819L101.891 51.0782L117.358 35.2203L117.863 35.4572C121.767 37.2473 125.445 39.4683 128.822 42.0758L129.709 42.7717L109.452 53.6177ZM104.769 50.2788C106.333 50.7489 107.866 51.3101 109.36 51.9593L126.962 42.5496C124.078 40.4117 120.978 38.5614 117.71 37.0267L104.769 50.2788ZM80.1188 53.1512L83.0652 31.415L83.6009 31.3114C87.0994 30.6448 90.6573 30.3125 94.2231 30.3193H94.3761C95.1058 30.4448 95.8472 30.4944 96.5878 30.4674H97.797L87.8482 50.834L87.4426 50.8931C85.3524 51.2289 83.3137 51.8159 81.3739 52.6404L80.1188 53.1512ZM84.435 32.6588L81.9785 50.8192C83.5292 50.23 85.1365 49.7911 86.7768 49.5088L95.3786 31.8888C94.9627 31.8683 94.5485 31.8213 94.1389 31.7482C90.8805 31.7504 87.6294 32.0453 84.4274 32.6292L84.435 32.6588ZM98.9066 50.6267L98.5163 50.5822C97.0936 50.388 95.6597 50.2793 94.2231 50.2565H90.8175L100.353 30.7487L100.896 30.808C105.287 31.2892 109.602 32.2835 113.746 33.7693L114.817 34.1616L98.9066 50.6267ZM93.2358 48.7759H94.2231C95.5926 48.7923 96.9599 48.8886 98.3174 49.0645L112.093 34.7984C108.572 33.6128 104.932 32.7913 101.233 32.3478L93.2358 48.7759Z" fill="black"/>
<path d="M94.2153 75.1464C92.3435 75.1435 90.513 75.6778 88.9553 76.6818C87.3976 77.6859 86.1828 79.1145 85.4648 80.7867C84.7467 82.4589 84.5577 84.2995 84.9215 86.0757C85.2854 87.8519 86.1858 89.4839 87.5088 90.7648C88.8318 92.0457 90.518 92.9181 92.3538 93.2715C94.1895 93.625 96.0924 93.4435 97.8216 92.7503C99.5507 92.057 101.028 90.8829 102.068 89.3768C103.107 87.8707 103.66 86.1003 103.659 84.2896C103.661 83.089 103.418 81.8997 102.944 80.79C102.471 79.6803 101.775 78.672 100.898 77.8227C100.021 76.9734 98.9789 76.2999 97.8322 75.8406C96.6855 75.3814 95.4564 75.1454 94.2153 75.1464ZM94.2153 89.5238C93.1449 89.5252 92.098 89.2194 91.2073 88.6452C90.3165 88.0709 89.6218 87.2539 89.2111 86.2977C88.8005 85.3414 88.6923 84.2887 88.9002 83.2729C89.1081 82.2571 89.6227 81.3237 90.3791 80.591C91.1355 79.8582 92.0996 79.3592 93.1493 79.1566C94.1991 78.954 95.2874 79.0573 96.2765 79.4532C97.2656 79.8491 98.111 80.5199 98.7059 81.3808C99.3007 82.2418 99.6182 83.254 99.6182 84.2896C99.6254 84.9782 99.4906 85.6612 99.2217 86.2989C98.9528 86.9366 98.5552 87.516 98.0522 88.0033C97.5491 88.4907 96.9508 88.8761 96.292 89.1372C95.6332 89.3982 94.9272 89.5297 94.2153 89.5238Z" fill="black"/>
<path d="M97.4219 105.863H90.8405V101.939H97.4219V105.863Z" fill="black"/>
<path d="M91.0088 62.7236H97.5903V66.6474H91.0088V62.7236Z" fill="black"/>
<path d="M111.779 97.8525L108.404 95.8979L111.61 90.338L114.985 92.3L111.779 97.8525Z" fill="black"/>
<path d="M76.6521 70.7341L80.027 72.6886L76.8204 78.2486L73.4379 76.2866L76.6521 70.7341Z" fill="black"/>
<path d="M111.779 70.7341L114.993 76.2866L111.61 78.2486L108.404 72.6886L111.779 70.7341Z" fill="black"/>
<path d="M76.6521 97.8525L73.4379 92.3L76.8204 90.338L80.027 95.8979L76.6521 97.8525Z" fill="black"/>
</g>
<defs>
<clipPath id="clip0_434_8540">
<rect width="119.423" height="115.529" fill="white" transform="translate(34.5 26.5288)"/>
</clipPath>
</defs>
</svg>
